<svg width="217" height="70" viewBox="0 0 217 70" fill="none" xmlns="http://www.w3.org/2000/svg">
<mask id="path-1-outside-1_779_1592" maskUnits="userSpaceOnUse" x="9" y="18" width="200" height="34" fill="black">
<rect fill="white" x="9" y="18" width="200" height="34"/>
<path d="M13.1005 47V22.8322H22.6355C24.4607 22.8322 26.0184 23.1587 27.3086 23.8116C28.6066 24.4567 29.594 25.3733 30.2705 26.5612C30.955 27.7413 31.2972 29.1298 31.2972 30.7268C31.2972 32.3317 30.9511 33.7124 30.2587 34.8689C29.5664 36.0175 28.5634 36.8986 27.2496 37.5122C25.9436 38.1259 24.3623 38.4327 22.5057 38.4327H16.1215V34.326H21.6796C22.6552 34.326 23.4655 34.1923 24.1106 33.9248C24.7557 33.6573 25.2356 33.2561 25.5503 32.7212C25.8728 32.1862 26.0341 31.5214 26.0341 30.7268C26.0341 29.9244 25.8728 29.2478 25.5503 28.6971C25.2356 28.1464 24.7517 27.7295 24.0988 27.4462C23.4537 27.1552 22.6394 27.0096 21.656 27.0096H18.2102V47H13.1005ZM26.1521 36.0017L32.1587 47H26.5179L20.6412 36.0017H26.1521ZM39.9825 47.3422C38.8261 47.3422 37.7955 47.1416 36.8907 46.7404C35.986 46.3313 35.2701 45.7295 34.743 44.9349C34.2238 44.1324 33.9642 43.1333 33.9642 41.9375C33.9642 40.9305 34.149 40.0848 34.5188 39.4003C34.8886 38.7159 35.392 38.1652 36.0293 37.7483C36.6665 37.3313 37.3903 37.0166 38.2006 36.8042C39.0188 36.5918 39.8763 36.4423 40.7732 36.3558C41.8274 36.2456 42.677 36.1434 43.3221 36.049C43.9672 35.9467 44.4353 35.7972 44.7264 35.6005C45.0175 35.4038 45.163 35.1128 45.163 34.7273V34.6565C45.163 33.9091 44.927 33.3309 44.455 32.9218C43.9908 32.5127 43.33 32.3081 42.4725 32.3081C41.5677 32.3081 40.8479 32.5087 40.3129 32.91C39.778 33.3033 39.424 33.799 39.2509 34.3969L34.6014 34.0192C34.8374 32.9178 35.3016 31.9659 35.9939 31.1635C36.6862 30.3531 37.5791 29.7316 38.6726 29.2989C39.774 28.8584 41.0485 28.6381 42.4961 28.6381C43.5031 28.6381 44.4668 28.7561 45.3872 28.9921C46.3156 29.2281 47.1377 29.594 47.8536 30.0896C48.5774 30.5852 49.1477 31.2225 49.5647 32.0013C49.9816 32.7723 50.1901 33.6967 50.1901 34.7745V47H45.4226V44.4865H45.281C44.9899 45.0529 44.6005 45.5524 44.1128 45.9851C43.625 46.41 43.0389 46.7443 42.3545 46.9882C41.67 47.2242 40.8794 47.3422 39.9825 47.3422ZM41.4222 43.8728C42.1617 43.8728 42.8147 43.7273 43.3811 43.4362C43.9476 43.1372 44.392 42.736 44.7146 42.2325C45.0372 41.729 45.1984 41.1587 45.1984 40.5214V38.5979C45.0411 38.7002 44.8247 38.7946 44.5494 38.8811C44.2819 38.9598 43.979 39.0345 43.6407 39.1053C43.3024 39.1683 42.9642 39.2273 42.6259 39.2823C42.2876 39.3295 41.9808 39.3728 41.7054 39.4121C41.1154 39.4987 40.6001 39.6364 40.1595 39.8252C39.719 40.014 39.3767 40.2697 39.1329 40.5922C38.889 40.9069 38.767 41.3003 38.767 41.7723C38.767 42.4567 39.0149 42.9799 39.5105 43.3418C40.014 43.6958 40.6512 43.8728 41.4222 43.8728ZM54.0903 47V28.8741H58.9639V32.0367H59.1528C59.4832 30.9117 60.0378 30.0621 60.8167 29.4878C61.5955 28.9056 62.4924 28.6145 63.5072 28.6145C63.759 28.6145 64.0304 28.6302 64.3215 28.6617C64.6125 28.6932 64.8682 28.7365 65.0885 28.7915V33.2522C64.8525 33.1814 64.526 33.1184 64.1091 33.0634C63.6921 33.0083 63.3105 32.9808 62.9644 32.9808C62.2249 32.9808 61.564 33.142 60.9819 33.4646C60.4076 33.7793 59.9513 34.2198 59.613 34.7863C59.2826 35.3527 59.1174 36.0057 59.1174 36.7452V47H54.0903ZM75.1044 47.354C73.2398 47.354 71.6349 46.9764 70.2897 46.2212C68.9523 45.458 67.9217 44.3802 67.1979 42.9878C66.4741 41.5874 66.1122 39.9314 66.1122 38.0197C66.1122 36.1552 66.4741 34.5188 67.1979 33.1106C67.9217 31.7024 68.9405 30.6049 70.2543 29.8182C71.5759 29.0315 73.1258 28.6381 74.9037 28.6381C76.0995 28.6381 77.2127 28.8309 78.2433 29.2163C79.2818 29.594 80.1865 30.1643 80.9575 30.9274C81.7363 31.6906 82.3421 32.6503 82.7748 33.8068C83.2075 34.9554 83.4238 36.3007 83.4238 37.8427V39.2233H68.1183V36.108H78.6918C78.6918 35.3842 78.5344 34.743 78.2197 34.1844C77.9051 33.6259 77.4684 33.1892 76.9099 32.8746C76.3592 32.552 75.718 32.3907 74.9863 32.3907C74.2232 32.3907 73.5467 32.5677 72.9566 32.9218C72.3745 33.2679 71.9182 33.736 71.5877 34.326C71.2573 34.9082 71.0882 35.5573 71.0803 36.2732V39.2351C71.0803 40.132 71.2455 40.9069 71.5759 41.5599C71.9142 42.2128 72.3902 42.7163 73.0038 43.0704C73.6175 43.4244 74.3452 43.6014 75.187 43.6014C75.7455 43.6014 76.2569 43.5227 76.721 43.3654C77.1852 43.208 77.5825 42.972 77.9129 42.6573C78.2433 42.3427 78.4951 41.9572 78.6682 41.5009L83.3176 41.8077C83.0816 42.9248 82.5978 43.9003 81.8662 44.7343C81.1424 45.5603 80.2062 46.2054 79.0576 46.6696C77.9169 47.1259 76.5991 47.354 75.1044 47.354ZM108.123 31.2933H102.954C102.86 30.6246 102.667 30.0306 102.376 29.5114C102.085 28.9843 101.711 28.5358 101.255 28.1661C100.798 27.7963 100.271 27.5131 99.6734 27.3164C99.0834 27.1198 98.4422 27.0214 97.7499 27.0214C96.499 27.0214 95.4094 27.3322 94.4811 27.9537C93.5528 28.5673 92.8329 29.4642 92.3216 30.6442C91.8102 31.8164 91.5545 33.2404 91.5545 34.9161C91.5545 36.639 91.8102 38.0865 92.3216 39.2587C92.8408 40.4309 93.5646 41.316 94.4929 41.9139C95.4212 42.5118 96.4951 42.8108 97.7145 42.8108C98.3989 42.8108 99.0322 42.7203 99.6144 42.5393C100.204 42.3584 100.728 42.0948 101.184 41.7487C101.64 41.3947 102.018 40.9659 102.317 40.4624C102.624 39.9589 102.836 39.3846 102.954 38.7395L108.123 38.7631C107.989 39.8724 107.655 40.9423 107.12 41.9729C106.593 42.9956 105.881 43.9122 104.984 44.7225C104.095 45.5249 103.033 46.1622 101.798 46.6342C100.57 47.0983 99.1817 47.3304 97.6319 47.3304C95.4763 47.3304 93.5488 46.8427 91.8495 45.8671C90.1581 44.8916 88.8207 43.4795 87.8373 41.6307C86.8618 39.7819 86.374 37.5437 86.374 34.9161C86.374 32.2806 86.8696 30.0385 87.8609 28.1897C88.8522 26.3409 90.1974 24.9327 91.8967 23.965C93.596 22.9895 95.5078 22.5017 97.6319 22.5017C99.0322 22.5017 100.33 22.6984 101.526 23.0918C102.73 23.4851 103.796 24.0594 104.724 24.8147C105.652 25.5621 106.408 26.4786 106.99 27.5642C107.58 28.6499 107.957 29.8929 108.123 31.2933ZM116.861 47.3422C115.705 47.3422 114.674 47.1416 113.769 46.7404C112.865 46.3313 112.149 45.7295 111.622 44.9349C111.102 44.1324 110.843 43.1333 110.843 41.9375C110.843 40.9305 111.028 40.0848 111.397 39.4003C111.767 38.7159 112.271 38.1652 112.908 37.7483C113.545 37.3313 114.269 37.0166 115.079 36.8042C115.897 36.5918 116.755 36.4423 117.652 36.3558C118.706 36.2456 119.556 36.1434 120.201 36.049C120.846 35.9467 121.314 35.7972 121.605 35.6005C121.896 35.4038 122.042 35.1128 122.042 34.7273V34.6565C122.042 33.9091 121.806 33.3309 121.334 32.9218C120.869 32.5127 120.209 32.3081 119.351 32.3081C118.446 32.3081 117.727 32.5087 117.192 32.91C116.657 33.3033 116.303 33.799 116.129 34.3969L111.48 34.0192C111.716 32.9178 112.18 31.9659 112.872 31.1635C113.565 30.3531 114.458 29.7316 115.551 29.2989C116.653 28.8584 117.927 28.6381 119.375 28.6381C120.382 28.6381 121.345 28.7561 122.266 28.9921C123.194 29.2281 124.016 29.594 124.732 30.0896C125.456 30.5852 126.026 31.2225 126.443 32.0013C126.86 32.7723 127.069 33.6967 127.069 34.7745V47H122.301V44.4865H122.16C121.869 45.0529 121.479 45.5524 120.991 45.9851C120.504 46.41 119.918 46.7443 119.233 46.9882C118.549 47.2242 117.758 47.3422 116.861 47.3422ZM118.301 43.8728C119.04 43.8728 119.693 43.7273 120.26 43.4362C120.826 43.1372 121.271 42.736 121.593 42.2325C121.916 41.729 122.077 41.1587 122.077 40.5214V38.5979C121.92 38.7002 121.703 38.7946 121.428 38.8811C121.161 38.9598 120.858 39.0345 120.519 39.1053C120.181 39.1683 119.843 39.2273 119.504 39.2823C119.166 39.3295 118.859 39.3728 118.584 39.4121C117.994 39.4987 117.479 39.6364 117.038 39.8252C116.598 40.014 116.255 40.2697 116.011 40.5922C115.768 40.9069 115.646 41.3003 115.646 41.7723C115.646 42.4567 115.893 42.9799 116.389 43.3418C116.893 43.6958 117.53 43.8728 118.301 43.8728ZM135.996 36.521V47H130.969V28.8741H135.76V32.0721H135.972C136.374 31.0179 137.046 30.184 137.99 29.5704C138.934 28.9489 140.079 28.6381 141.424 28.6381C142.683 28.6381 143.78 28.9135 144.717 29.4642C145.653 30.0149 146.381 30.8016 146.9 31.8243C147.419 32.8392 147.679 34.0507 147.679 35.4589V47H142.652V36.3558C142.659 35.2465 142.376 34.3811 141.802 33.7596C141.228 33.1302 140.437 32.8156 139.43 32.8156C138.753 32.8156 138.155 32.9611 137.636 33.2522C137.125 33.5433 136.724 33.9681 136.433 34.5267C136.149 35.0774 136.004 35.7421 135.996 36.521ZM167.89 28.8741L161.553 47H155.889L149.552 28.8741H154.862L158.627 41.8431H158.816L162.568 28.8741H167.89ZM175.145 47.3422C173.988 47.3422 172.958 47.1416 172.053 46.7404C171.148 46.3313 170.432 45.7295 169.905 44.9349C169.386 44.1324 169.126 43.1333 169.126 41.9375C169.126 40.9305 169.311 40.0848 169.681 39.4003C170.051 38.7159 170.554 38.1652 171.192 37.7483C171.829 37.3313 172.553 37.0166 173.363 36.8042C174.181 36.5918 175.039 36.4423 175.935 36.3558C176.99 36.2456 177.839 36.1434 178.484 36.049C179.129 35.9467 179.598 35.7972 179.889 35.6005C180.18 35.4038 180.325 35.1128 180.325 34.7273V34.6565C180.325 33.9091 180.089 33.3309 179.617 32.9218C179.153 32.5127 178.492 32.3081 177.635 32.3081C176.73 32.3081 176.01 32.5087 175.475 32.91C174.94 33.3033 174.586 33.799 174.413 34.3969L169.764 34.0192C170 32.9178 170.464 31.9659 171.156 31.1635C171.848 30.3531 172.741 29.7316 173.835 29.2989C174.936 28.8584 176.211 28.6381 177.658 28.6381C178.665 28.6381 179.629 28.7561 180.55 28.9921C181.478 29.2281 182.3 29.594 183.016 30.0896C183.74 30.5852 184.31 31.2225 184.727 32.0013C185.144 32.7723 185.352 33.6967 185.352 34.7745V47H180.585V44.4865H180.443C180.152 45.0529 179.763 45.5524 179.275 45.9851C178.787 46.41 178.201 46.7443 177.517 46.9882C176.832 47.2242 176.042 47.3422 175.145 47.3422ZM176.584 43.8728C177.324 43.8728 177.977 43.7273 178.543 43.4362C179.11 43.1372 179.554 42.736 179.877 42.2325C180.199 41.729 180.361 41.1587 180.361 40.5214V38.5979C180.203 38.7002 179.987 38.7946 179.712 38.8811C179.444 38.9598 179.141 39.0345 178.803 39.1053C178.465 39.1683 178.126 39.2273 177.788 39.2823C177.45 39.3295 177.143 39.3728 176.868 39.4121C176.278 39.4987 175.762 39.6364 175.322 39.8252C174.881 40.014 174.539 40.2697 174.295 40.5922C174.051 40.9069 173.929 41.3003 173.929 41.7723C173.929 42.4567 174.177 42.9799 174.673 43.3418C175.176 43.6958 175.813 43.8728 176.584 43.8728ZM204.334 34.0428L199.732 34.326C199.653 33.9327 199.484 33.5787 199.224 33.264C198.964 32.9414 198.622 32.6858 198.197 32.4969C197.78 32.3003 197.281 32.2019 196.699 32.2019C195.92 32.2019 195.263 32.3671 194.728 32.6976C194.193 33.0201 193.926 33.4528 193.926 33.9956C193.926 34.4283 194.099 34.7941 194.445 35.0931C194.791 35.392 195.385 35.632 196.227 35.8129L199.507 36.4738C201.27 36.8357 202.583 37.4178 203.449 38.2203C204.314 39.0227 204.747 40.0769 204.747 41.3829C204.747 42.5708 204.397 43.6132 203.697 44.5101C203.004 45.4069 202.052 46.1071 200.841 46.6106C199.637 47.1062 198.249 47.354 196.675 47.354C194.276 47.354 192.364 46.8545 190.94 45.8553C189.524 44.8483 188.694 43.4795 188.45 41.7487L193.395 41.4891C193.544 42.2207 193.906 42.7793 194.48 43.1648C195.055 43.5424 195.79 43.7312 196.687 43.7312C197.568 43.7312 198.276 43.5621 198.811 43.2238C199.354 42.8776 199.629 42.4331 199.637 41.8903C199.629 41.434 199.437 41.0603 199.059 40.7692C198.681 40.4703 198.099 40.2421 197.312 40.0848L194.173 39.4594C192.403 39.1053 191.086 38.4917 190.22 37.6184C189.363 36.7452 188.934 35.632 188.934 34.2788C188.934 33.1145 189.249 32.1114 189.878 31.2697C190.515 30.4279 191.408 29.7788 192.557 29.3226C193.713 28.8663 195.066 28.6381 196.616 28.6381C198.905 28.6381 200.707 29.1219 202.021 30.0896C203.343 31.0573 204.114 32.375 204.334 34.0428Z"/>
</mask>
<path d="M13.1005 47V22.8322H22.6355C24.4607 22.8322 26.0184 23.1587 27.3086 23.8116C28.6066 24.4567 29.594 25.3733 30.2705 26.5612C30.955 27.7413 31.2972 29.1298 31.2972 30.7268C31.2972 32.3317 30.9511 33.7124 30.2587 34.8689C29.5664 36.0175 28.5634 36.8986 27.2496 37.5122C25.9436 38.1259 24.3623 38.4327 22.5057 38.4327H16.1215V34.326H21.6796C22.6552 34.326 23.4655 34.1923 24.1106 33.9248C24.7557 33.6573 25.2356 33.2561 25.5503 32.7212C25.8728 32.1862 26.0341 31.5214 26.0341 30.7268C26.0341 29.9244 25.8728 29.2478 25.5503 28.6971C25.2356 28.1464 24.7517 27.7295 24.0988 27.4462C23.4537 27.1552 22.6394 27.0096 21.656 27.0096H18.2102V47H13.1005ZM26.1521 36.0017L32.1587 47H26.5179L20.6412 36.0017H26.1521ZM39.9825 47.3422C38.8261 47.3422 37.7955 47.1416 36.8907 46.7404C35.986 46.3313 35.2701 45.7295 34.743 44.9349C34.2238 44.1324 33.9642 43.1333 33.9642 41.9375C33.9642 40.9305 34.149 40.0848 34.5188 39.4003C34.8886 38.7159 35.392 38.1652 36.0293 37.7483C36.6665 37.3313 37.3903 37.0166 38.2006 36.8042C39.0188 36.5918 39.8763 36.4423 40.7732 36.3558C41.8274 36.2456 42.677 36.1434 43.3221 36.049C43.9672 35.9467 44.4353 35.7972 44.7264 35.6005C45.0175 35.4038 45.163 35.1128 45.163 34.7273V34.6565C45.163 33.9091 44.927 33.3309 44.455 32.9218C43.9908 32.5127 43.33 32.3081 42.4725 32.3081C41.5677 32.3081 40.8479 32.5087 40.3129 32.91C39.778 33.3033 39.424 33.799 39.2509 34.3969L34.6014 34.0192C34.8374 32.9178 35.3016 31.9659 35.9939 31.1635C36.6862 30.3531 37.5791 29.7316 38.6726 29.2989C39.774 28.8584 41.0485 28.6381 42.4961 28.6381C43.5031 28.6381 44.4668 28.7561 45.3872 28.9921C46.3156 29.2281 47.1377 29.594 47.8536 30.0896C48.5774 30.5852 49.1477 31.2225 49.5647 32.0013C49.9816 32.7723 50.1901 33.6967 50.1901 34.7745V47H45.4226V44.4865H45.281C44.9899 45.0529 44.6005 45.5524 44.1128 45.9851C43.625 46.41 43.0389 46.7443 42.3545 46.9882C41.67 47.2242 40.8794 47.3422 39.9825 47.3422ZM41.4222 43.8728C42.1617 43.8728 42.8147 43.7273 43.3811 43.4362C43.9476 43.1372 44.392 42.736 44.7146 42.2325C45.0372 41.729 45.1984 41.1587 45.1984 40.5214V38.5979C45.0411 38.7002 44.8247 38.7946 44.5494 38.8811C44.2819 38.9598 43.979 39.0345 43.6407 39.1053C43.3024 39.1683 42.9642 39.2273 42.6259 39.2823C42.2876 39.3295 41.9808 39.3728 41.7054 39.4121C41.1154 39.4987 40.6001 39.6364 40.1595 39.8252C39.719 40.014 39.3767 40.2697 39.1329 40.5922C38.889 40.9069 38.767 41.3003 38.767 41.7723C38.767 42.4567 39.0149 42.9799 39.5105 43.3418C40.014 43.6958 40.6512 43.8728 41.4222 43.8728ZM54.0903 47V28.8741H58.9639V32.0367H59.1528C59.4832 30.9117 60.0378 30.0621 60.8167 29.4878C61.5955 28.9056 62.4924 28.6145 63.5072 28.6145C63.759 28.6145 64.0304 28.6302 64.3215 28.6617C64.6125 28.6932 64.8682 28.7365 65.0885 28.7915V33.2522C64.8525 33.1814 64.526 33.1184 64.1091 33.0634C63.6921 33.0083 63.3105 32.9808 62.9644 32.9808C62.2249 32.9808 61.564 33.142 60.9819 33.4646C60.4076 33.7793 59.9513 34.2198 59.613 34.7863C59.2826 35.3527 59.1174 36.0057 59.1174 36.7452V47H54.0903ZM75.1044 47.354C73.2398 47.354 71.6349 46.9764 70.2897 46.2212C68.9523 45.458 67.9217 44.3802 67.1979 42.9878C66.4741 41.5874 66.1122 39.9314 66.1122 38.0197C66.1122 36.1552 66.4741 34.5188 67.1979 33.1106C67.9217 31.7024 68.9405 30.6049 70.2543 29.8182C71.5759 29.0315 73.1258 28.6381 74.9037 28.6381C76.0995 28.6381 77.2127 28.8309 78.2433 29.2163C79.2818 29.594 80.1865 30.1643 80.9575 30.9274C81.7363 31.6906 82.3421 32.6503 82.7748 33.8068C83.2075 34.9554 83.4238 36.3007 83.4238 37.8427V39.2233H68.1183V36.108H78.6918C78.6918 35.3842 78.5344 34.743 78.2197 34.1844C77.9051 33.6259 77.4684 33.1892 76.9099 32.8746C76.3592 32.552 75.718 32.3907 74.9863 32.3907C74.2232 32.3907 73.5467 32.5677 72.9566 32.9218C72.3745 33.2679 71.9182 33.736 71.5877 34.326C71.2573 34.9082 71.0882 35.5573 71.0803 36.2732V39.2351C71.0803 40.132 71.2455 40.9069 71.5759 41.5599C71.9142 42.2128 72.3902 42.7163 73.0038 43.0704C73.6175 43.4244 74.3452 43.6014 75.187 43.6014C75.7455 43.6014 76.2569 43.5227 76.721 43.3654C77.1852 43.208 77.5825 42.972 77.9129 42.6573C78.2433 42.3427 78.4951 41.9572 78.6682 41.5009L83.3176 41.8077C83.0816 42.9248 82.5978 43.9003 81.8662 44.7343C81.1424 45.5603 80.2062 46.2054 79.0576 46.6696C77.9169 47.1259 76.5991 47.354 75.1044 47.354ZM108.123 31.2933H102.954C102.86 30.6246 102.667 30.0306 102.376 29.5114C102.085 28.9843 101.711 28.5358 101.255 28.1661C100.798 27.7963 100.271 27.5131 99.6734 27.3164C99.0834 27.1198 98.4422 27.0214 97.7499 27.0214C96.499 27.0214 95.4094 27.3322 94.4811 27.9537C93.5528 28.5673 92.8329 29.4642 92.3216 30.6442C91.8102 31.8164 91.5545 33.2404 91.5545 34.9161C91.5545 36.639 91.8102 38.0865 92.3216 39.2587C92.8408 40.4309 93.5646 41.316 94.4929 41.9139C95.4212 42.5118 96.4951 42.8108 97.7145 42.8108C98.3989 42.8108 99.0322 42.7203 99.6144 42.5393C100.204 42.3584 100.728 42.0948 101.184 41.7487C101.64 41.3947 102.018 40.9659 102.317 40.4624C102.624 39.9589 102.836 39.3846 102.954 38.7395L108.123 38.7631C107.989 39.8724 107.655 40.9423 107.12 41.9729C106.593 42.9956 105.881 43.9122 104.984 44.7225C104.095 45.5249 103.033 46.1622 101.798 46.6342C100.57 47.0983 99.1817 47.3304 97.6319 47.3304C95.4763 47.3304 93.5488 46.8427 91.8495 45.8671C90.1581 44.8916 88.8207 43.4795 87.8373 41.6307C86.8618 39.7819 86.374 37.5437 86.374 34.9161C86.374 32.2806 86.8696 30.0385 87.8609 28.1897C88.8522 26.3409 90.1974 24.9327 91.8967 23.965C93.596 22.9895 95.5078 22.5017 97.6319 22.5017C99.0322 22.5017 100.33 22.6984 101.526 23.0918C102.73 23.4851 103.796 24.0594 104.724 24.8147C105.652 25.5621 106.408 26.4786 106.99 27.5642C107.58 28.6499 107.957 29.8929 108.123 31.2933ZM116.861 47.3422C115.705 47.3422 114.674 47.1416 113.769 46.7404C112.865 46.3313 112.149 45.7295 111.622 44.9349C111.102 44.1324 110.843 43.1333 110.843 41.9375C110.843 40.9305 111.028 40.0848 111.397 39.4003C111.767 38.7159 112.271 38.1652 112.908 37.7483C113.545 37.3313 114.269 37.0166 115.079 36.8042C115.897 36.5918 116.755 36.4423 117.652 36.3558C118.706 36.2456 119.556 36.1434 120.201 36.049C120.846 35.9467 121.314 35.7972 121.605 35.6005C121.896 35.4038 122.042 35.1128 122.042 34.7273V34.6565C122.042 33.9091 121.806 33.3309 121.334 32.9218C120.869 32.5127 120.209 32.3081 119.351 32.3081C118.446 32.3081 117.727 32.5087 117.192 32.91C116.657 33.3033 116.303 33.799 116.129 34.3969L111.48 34.0192C111.716 32.9178 112.18 31.9659 112.872 31.1635C113.565 30.3531 114.458 29.7316 115.551 29.2989C116.653 28.8584 117.927 28.6381 119.375 28.6381C120.382 28.6381 121.345 28.7561 122.266 28.9921C123.194 29.2281 124.016 29.594 124.732 30.0896C125.456 30.5852 126.026 31.2225 126.443 32.0013C126.86 32.7723 127.069 33.6967 127.069 34.7745V47H122.301V44.4865H122.16C121.869 45.0529 121.479 45.5524 120.991 45.9851C120.504 46.41 119.918 46.7443 119.233 46.9882C118.549 47.2242 117.758 47.3422 116.861 47.3422ZM118.301 43.8728C119.04 43.8728 119.693 43.7273 120.26 43.4362C120.826 43.1372 121.271 42.736 121.593 42.2325C121.916 41.729 122.077 41.1587 122.077 40.5214V38.5979C121.92 38.7002 121.703 38.7946 121.428 38.8811C121.161 38.9598 120.858 39.0345 120.519 39.1053C120.181 39.1683 119.843 39.2273 119.504 39.2823C119.166 39.3295 118.859 39.3728 118.584 39.4121C117.994 39.4987 117.479 39.6364 117.038 39.8252C116.598 40.014 116.255 40.2697 116.011 40.5922C115.768 40.9069 115.646 41.3003 115.646 41.7723C115.646 42.4567 115.893 42.9799 116.389 43.3418C116.893 43.6958 117.53 43.8728 118.301 43.8728ZM135.996 36.521V47H130.969V28.8741H135.76V32.0721H135.972C136.374 31.0179 137.046 30.184 137.99 29.5704C138.934 28.9489 140.079 28.6381 141.424 28.6381C142.683 28.6381 143.78 28.9135 144.717 29.4642C145.653 30.0149 146.381 30.8016 146.9 31.8243C147.419 32.8392 147.679 34.0507 147.679 35.4589V47H142.652V36.3558C142.659 35.2465 142.376 34.3811 141.802 33.7596C141.228 33.1302 140.437 32.8156 139.43 32.8156C138.753 32.8156 138.155 32.9611 137.636 33.2522C137.125 33.5433 136.724 33.9681 136.433 34.5267C136.149 35.0774 136.004 35.7421 135.996 36.521ZM167.89 28.8741L161.553 47H155.889L149.552 28.8741H154.862L158.627 41.8431H158.816L162.568 28.8741H167.89ZM175.145 47.3422C173.988 47.3422 172.958 47.1416 172.053 46.7404C171.148 46.3313 170.432 45.7295 169.905 44.9349C169.386 44.1324 169.126 43.1333 169.126 41.9375C169.126 40.9305 169.311 40.0848 169.681 39.4003C170.051 38.7159 170.554 38.1652 171.192 37.7483C171.829 37.3313 172.553 37.0166 173.363 36.8042C174.181 36.5918 175.039 36.4423 175.935 36.3558C176.99 36.2456 177.839 36.1434 178.484 36.049C179.129 35.9467 179.598 35.7972 179.889 35.6005C180.18 35.4038 180.325 35.1128 180.325 34.7273V34.6565C180.325 33.9091 180.089 33.3309 179.617 32.9218C179.153 32.5127 178.492 32.3081 177.635 32.3081C176.73 32.3081 176.01 32.5087 175.475 32.91C174.94 33.3033 174.586 33.799 174.413 34.3969L169.764 34.0192C170 32.9178 170.464 31.9659 171.156 31.1635C171.848 30.3531 172.741 29.7316 173.835 29.2989C174.936 28.8584 176.211 28.6381 177.658 28.6381C178.665 28.6381 179.629 28.7561 180.55 28.9921C181.478 29.2281 182.3 29.594 183.016 30.0896C183.74 30.5852 184.31 31.2225 184.727 32.0013C185.144 32.7723 185.352 33.6967 185.352 34.7745V47H180.585V44.4865H180.443C180.152 45.0529 179.763 45.5524 179.275 45.9851C178.787 46.41 178.201 46.7443 177.517 46.9882C176.832 47.2242 176.042 47.3422 175.145 47.3422ZM176.584 43.8728C177.324 43.8728 177.977 43.7273 178.543 43.4362C179.11 43.1372 179.554 42.736 179.877 42.2325C180.199 41.729 180.361 41.1587 180.361 40.5214V38.5979C180.203 38.7002 179.987 38.7946 179.712 38.8811C179.444 38.9598 179.141 39.0345 178.803 39.1053C178.465 39.1683 178.126 39.2273 177.788 39.2823C177.45 39.3295 177.143 39.3728 176.868 39.4121C176.278 39.4987 175.762 39.6364 175.322 39.8252C174.881 40.014 174.539 40.2697 174.295 40.5922C174.051 40.9069 173.929 41.3003 173.929 41.7723C173.929 42.4567 174.177 42.9799 174.673 43.3418C175.176 43.6958 175.813 43.8728 176.584 43.8728ZM204.334 34.0428L199.732 34.326C199.653 33.9327 199.484 33.5787 199.224 33.264C198.964 32.9414 198.622 32.6858 198.197 32.4969C197.78 32.3003 197.281 32.2019 196.699 32.2019C195.92 32.2019 195.263 32.3671 194.728 32.6976C194.193 33.0201 193.926 33.4528 193.926 33.9956C193.926 34.4283 194.099 34.7941 194.445 35.0931C194.791 35.392 195.385 35.632 196.227 35.8129L199.507 36.4738C201.27 36.8357 202.583 37.4178 203.449 38.2203C204.314 39.0227 204.747 40.0769 204.747 41.3829C204.747 42.5708 204.397 43.6132 203.697 44.5101C203.004 45.4069 202.052 46.1071 200.841 46.6106C199.637 47.1062 198.249 47.354 196.675 47.354C194.276 47.354 192.364 46.8545 190.94 45.8553C189.524 44.8483 188.694 43.4795 188.45 41.7487L193.395 41.4891C193.544 42.2207 193.906 42.7793 194.48 43.1648C195.055 43.5424 195.79 43.7312 196.687 43.7312C197.568 43.7312 198.276 43.5621 198.811 43.2238C199.354 42.8776 199.629 42.4331 199.637 41.8903C199.629 41.434 199.437 41.0603 199.059 40.7692C198.681 40.4703 198.099 40.2421 197.312 40.0848L194.173 39.4594C192.403 39.1053 191.086 38.4917 190.22 37.6184C189.363 36.7452 188.934 35.632 188.934 34.2788C188.934 33.1145 189.249 32.1114 189.878 31.2697C190.515 30.4279 191.408 29.7788 192.557 29.3226C193.713 28.8663 195.066 28.6381 196.616 28.6381C198.905 28.6381 200.707 29.1219 202.021 30.0896C203.343 31.0573 204.114 32.375 204.334 34.0428Z" fill="white"/>
<path d="M13.1005 47H9.10052V51H13.1005V47ZM13.1005 22.8322V18.8322H9.10052V22.8322H13.1005ZM27.3086 23.8116L25.5023 27.3806L25.5153 27.3872L25.5284 27.3937L27.3086 23.8116ZM30.2705 26.5612L26.7947 28.5408L26.8025 28.5545L26.8104 28.5681L30.2705 26.5612ZM30.2587 34.8689L33.6846 36.9338L33.6908 36.9234L30.2587 34.8689ZM27.2496 37.5122L25.5568 33.888L25.5485 33.892L27.2496 37.5122ZM16.1215 38.4327H12.1215V42.4327H16.1215V38.4327ZM16.1215 34.326V30.326H12.1215V34.326H16.1215ZM24.1106 33.9248L25.6426 37.6198L25.6426 37.6198L24.1106 33.9248ZM25.5503 32.7212L22.1247 30.6558L22.1135 30.6744L22.1025 30.6931L25.5503 32.7212ZM25.5503 28.6971L22.0773 30.6817L22.0879 30.7003L22.0987 30.7187L25.5503 28.6971ZM24.0988 27.4462L22.4536 31.0923L22.4803 31.1043L22.5071 31.1159L24.0988 27.4462ZM18.2102 27.0096V23.0096H14.2102V27.0096H18.2102ZM18.2102 47V51H22.2102V47H18.2102ZM26.1521 36.0017L29.6627 34.0845L28.5252 32.0017H26.1521V36.0017ZM32.1587 47V51H38.9009L35.6692 45.0827L32.1587 47ZM26.5179 47L22.99 48.8851L24.12 51H26.5179V47ZM20.6412 36.0017V32.0017H13.9686L17.1132 37.8869L20.6412 36.0017ZM17.1005 47V22.8322H9.10052V47H17.1005ZM13.1005 26.8322H22.6355V18.8322H13.1005V26.8322ZM22.6355 26.8322C23.9935 26.8322 24.8995 27.0755 25.5023 27.3806L29.1148 20.2427C27.1372 19.2418 24.9278 18.8322 22.6355 18.8322V26.8322ZM25.5284 27.3937C26.1598 27.7075 26.5359 28.0862 26.7947 28.5408L33.7463 24.5816C32.6521 22.6603 31.0535 21.206 29.0887 20.2296L25.5284 27.3937ZM26.8104 28.5681C27.0849 29.0414 27.2972 29.7133 27.2972 30.7268H35.2972C35.2972 28.5464 34.825 26.4412 33.7307 24.5543L26.8104 28.5681ZM27.2972 30.7268C27.2972 31.747 27.0819 32.388 26.8267 32.8143L33.6908 36.9234C34.8202 35.0368 35.2972 32.9164 35.2972 30.7268H27.2972ZM26.8329 32.804C26.5842 33.2166 26.2122 33.582 25.5568 33.8881L28.9423 41.1364C30.9146 40.2152 32.5487 38.8183 33.6846 36.9338L26.8329 32.804ZM25.5485 33.892C24.9045 34.1946 23.9368 34.4327 22.5057 34.4327V42.4327C24.7879 42.4327 26.9828 42.0572 28.9507 41.1325L25.5485 33.892ZM22.5057 34.4327H16.1215V42.4327H22.5057V34.4327ZM20.1215 38.4327V34.326H12.1215V38.4327H20.1215ZM16.1215 38.326H21.6796V30.326H16.1215V38.326ZM21.6796 38.326C22.9869 38.326 24.36 38.1516 25.6426 37.6198L22.5785 30.2299C22.5833 30.2279 22.5219 30.2537 22.3676 30.2791C22.2133 30.3046 21.9884 30.326 21.6796 30.326V38.326ZM25.6426 37.6198C26.985 37.0632 28.1882 36.1259 28.998 34.7492L22.1025 30.6931C22.1793 30.5626 22.28 30.4454 22.3886 30.3545C22.4934 30.267 22.5699 30.2334 22.5785 30.2299L25.6426 37.6198ZM28.9758 34.7865C29.7636 33.4799 30.0341 32.0541 30.0341 30.7268H22.0341C22.0341 30.8562 22.0207 30.8996 22.0259 30.8783C22.0287 30.8668 22.0362 30.8393 22.0522 30.7995C22.0684 30.7594 22.0919 30.7103 22.1247 30.6558L28.9758 34.7865ZM30.0341 30.7268C30.0341 29.3943 29.7649 27.9784 29.0018 26.6755L22.0987 30.7187C22.0719 30.6729 22.0532 30.6325 22.0407 30.6008C22.0283 30.5693 22.0232 30.5496 22.0222 30.5451C22.0203 30.5372 22.0341 30.5913 22.0341 30.7268H30.0341ZM29.0232 26.7126C28.228 25.321 27.0345 24.3595 25.6904 23.7766L22.5071 31.1159C22.5053 31.1151 22.4366 31.0846 22.3401 31.0014C22.2399 30.9151 22.1472 30.8041 22.0773 30.6817L29.0232 26.7126ZM25.7439 23.8002C24.4217 23.2036 22.9999 23.0096 21.656 23.0096V31.0096C22.2789 31.0096 22.4857 31.1067 22.4536 31.0923L25.7439 23.8002ZM21.656 23.0096H18.2102V31.0096H21.656V23.0096ZM14.2102 27.0096V47H22.2102V27.0096H14.2102ZM18.2102 43H13.1005V51H18.2102V43ZM22.6415 37.919L28.6481 48.9173L35.6692 45.0827L29.6627 34.0845L22.6415 37.919ZM32.1587 43H26.5179V51H32.1587V43ZM30.0459 45.1149L24.1691 34.1166L17.1132 37.8869L22.99 48.8851L30.0459 45.1149ZM20.6412 40.0017H26.1521V32.0017H20.6412V40.0017ZM36.8907 46.7404L35.2427 50.3851L35.2559 50.3911L35.2691 50.3969L36.8907 46.7404ZM34.743 44.9349L31.3847 47.1079L31.3971 47.127L31.4097 47.1461L34.743 44.9349ZM34.5188 39.4003L30.9995 37.4991L30.9995 37.4991L34.5188 39.4003ZM36.0293 37.7483L33.8392 34.4011L33.8392 34.4011L36.0293 37.7483ZM38.2006 36.8042L37.1955 32.9325L37.1863 32.9349L38.2006 36.8042ZM40.7732 36.3558L41.1573 40.3373L41.1731 40.3358L41.1888 40.3341L40.7732 36.3558ZM43.3221 36.049L43.9013 40.0068L43.9249 40.0033L43.9484 39.9996L43.3221 36.049ZM44.7264 35.6005L42.487 32.2862L42.487 32.2862L44.7264 35.6005ZM44.455 32.9218L41.8102 35.9226L41.8227 35.9336L41.8353 35.9445L44.455 32.9218ZM40.3129 32.91L42.6825 36.1326L42.6978 36.1213L42.7129 36.11L40.3129 32.91ZM39.2509 34.3969L38.9271 38.3837L42.1844 38.6483L43.0931 35.5091L39.2509 34.3969ZM34.6014 34.0192L30.6902 33.1811L29.7353 37.6372L34.2776 38.0061L34.6014 34.0192ZM35.9939 31.1635L39.0225 33.7764L39.0288 33.7691L39.0351 33.7618L35.9939 31.1635ZM38.6726 29.2989L40.1444 33.0184L40.1513 33.0156L40.1582 33.0129L38.6726 29.2989ZM45.3872 28.9921L44.3937 32.8668L44.4016 32.8688L45.3872 28.9921ZM47.8536 30.0896L45.5767 33.3784L45.5851 33.3842L45.5936 33.3899L47.8536 30.0896ZM49.5647 32.0013L46.0382 33.8892L46.0422 33.8967L46.0463 33.9041L49.5647 32.0013ZM50.1901 47V51H54.1901V47H50.1901ZM45.4226 47H41.4226V51H45.4226V47ZM45.4226 44.4865H49.4226V40.4865H45.4226V44.4865ZM45.281 44.4865V40.4865H42.8393L41.7233 42.6582L45.281 44.4865ZM44.1128 45.9851L46.7399 49.0015L46.7536 48.9895L46.7672 48.9774L44.1128 45.9851ZM42.3545 46.9882L43.6584 50.7697L43.6778 50.763L43.6971 50.7561L42.3545 46.9882ZM43.3811 43.4362L45.2094 46.9939L45.2288 46.9839L45.2482 46.9737L43.3811 43.4362ZM44.7146 42.2325L41.3465 40.0748L41.3465 40.0748L44.7146 42.2325ZM45.1984 38.5979H49.1984V31.2272L43.0185 35.2441L45.1984 38.5979ZM44.5494 38.8811L45.6781 42.7186L45.7135 42.7082L45.7487 42.6971L44.5494 38.8811ZM43.6407 39.1053L44.3724 43.0379L44.4164 43.0297L44.4602 43.0205L43.6407 39.1053ZM42.6259 39.2823L43.1787 43.244L43.2237 43.2377L43.2686 43.2304L42.6259 39.2823ZM41.7054 39.4121L41.1397 35.4524L41.1323 35.4534L41.125 35.4545L41.7054 39.4121ZM40.1595 39.8252L41.7352 43.5018L41.7352 43.5018L40.1595 39.8252ZM39.1329 40.5922L42.2945 43.0425L42.3091 43.0237L42.3235 43.0047L39.1329 40.5922ZM39.5105 43.3418L37.1517 46.5723L37.1806 46.5934L37.2098 46.6139L39.5105 43.3418ZM39.9825 43.3422C39.2914 43.3422 38.8276 43.2236 38.5123 43.0838L35.2691 50.3969C36.7633 51.0596 38.3607 51.3422 39.9825 51.3422V43.3422ZM38.5388 43.0957C38.2897 42.983 38.1699 42.8648 38.0763 42.7237L31.4097 47.1461C32.3703 48.5941 33.6824 49.6796 35.2427 50.3851L38.5388 43.0957ZM38.1013 42.7619C38.0949 42.7519 37.9642 42.5556 37.9642 41.9375H29.9642C29.9642 43.711 30.3527 45.5129 31.3847 47.1079L38.1013 42.7619ZM37.9642 41.9375C37.9642 41.4045 38.0632 41.2551 38.0381 41.3016L30.9995 37.4991C30.2349 38.9145 29.9642 40.4565 29.9642 41.9375H37.9642ZM38.0381 41.3016C38.0989 41.1889 38.1509 41.1403 38.2194 41.0954L33.8392 34.4011C32.6332 35.1902 31.6782 36.2429 30.9995 37.4991L38.0381 41.3016ZM38.2194 41.0954C38.4612 40.9372 38.7806 40.7873 39.2149 40.6735L37.1863 32.9349C36 33.2459 34.8719 33.7254 33.8392 34.4011L38.2194 41.0954ZM39.2058 40.6758C39.8073 40.5197 40.4564 40.4049 41.1573 40.3373L40.389 32.3743C39.2962 32.4797 38.2303 32.6639 37.1955 32.9325L39.2058 40.6758ZM41.1888 40.3341C42.2685 40.2213 43.179 40.1125 43.9013 40.0068L42.7429 32.0911C42.175 32.1742 41.3862 32.2699 40.3575 32.3774L41.1888 40.3341ZM43.9484 39.9996C44.7581 39.8712 45.9339 39.6121 46.9658 38.9149L42.487 32.2862C42.6285 32.1905 42.7446 32.1319 42.8154 32.0997C42.8872 32.0669 42.9322 32.0523 42.9402 32.0497C42.9492 32.0468 42.9343 32.052 42.8904 32.0619C42.8471 32.0717 42.7832 32.0844 42.6958 32.0983L43.9484 39.9996ZM46.9658 38.9149C48.4782 37.893 49.163 36.2891 49.163 34.7273H41.163C41.163 34.4129 41.2244 33.9493 41.4762 33.4458C41.7352 32.9278 42.1094 32.5413 42.487 32.2862L46.9658 38.9149ZM49.163 34.7273V34.6565H41.163V34.7273H49.163ZM49.163 34.6565C49.163 32.999 48.5961 31.2176 47.0747 29.899L41.8353 35.9445C41.5964 35.7375 41.4021 35.4667 41.2826 35.1738C41.1703 34.8986 41.163 34.7014 41.163 34.6565H49.163ZM47.0998 29.9209C45.6652 28.6566 43.9279 28.3081 42.4725 28.3081V36.3081C42.5922 36.3081 42.56 36.3234 42.4285 36.2827C42.2831 36.2377 42.0496 36.1336 41.8102 35.9226L47.0998 29.9209ZM42.4725 28.3081C41.004 28.3081 39.348 28.6336 37.9129 29.71L42.7129 36.11C42.5388 36.2406 42.3907 36.2942 42.3279 36.3118C42.2738 36.3268 42.3096 36.3081 42.4725 36.3081V28.3081ZM37.9434 29.6874C36.7491 30.5655 35.8436 31.7818 35.4086 33.2846L43.0931 35.5091C43.0567 35.635 42.9929 35.7732 42.9011 35.9017C42.8112 36.0276 42.7251 36.1012 42.6825 36.1326L37.9434 29.6874ZM39.5747 30.41L34.9252 30.0324L34.2776 38.0061L38.9271 38.3837L39.5747 30.41ZM38.5126 34.8573C38.6171 34.3697 38.7962 34.0387 39.0225 33.7764L32.9653 28.5505C31.8069 29.8931 31.0577 31.466 30.6902 33.1811L38.5126 34.8573ZM39.0351 33.7618C39.261 33.4974 39.5936 33.2363 40.1444 33.0184L37.2009 25.5795C35.5646 26.227 34.1114 27.2089 32.9527 28.5652L39.0351 33.7618ZM40.1582 33.0129C40.6956 32.7979 41.4485 32.6381 42.4961 32.6381V24.6381C40.6485 24.6381 38.8525 24.9189 37.1871 25.585L40.1582 33.0129ZM42.4961 32.6381C43.1879 32.6381 43.8167 32.7188 44.3937 32.8668L46.3807 25.1175C45.1169 24.7934 43.8182 24.6381 42.4961 24.6381V32.6381ZM44.4016 32.8688C44.9141 32.9991 45.2901 33.1799 45.5767 33.3784L50.1304 26.8008C48.9852 26.008 47.717 25.4572 46.3728 25.1155L44.4016 32.8688ZM45.5936 33.3899C45.7841 33.5204 45.9218 33.6717 46.0382 33.8892L53.0911 30.1134C52.3736 28.7732 51.3706 27.65 50.1136 26.7892L45.5936 33.3899ZM46.0463 33.9041C46.0825 33.9711 46.1901 34.2104 46.1901 34.7745H54.1901C54.1901 33.183 53.8808 31.5735 53.0831 30.0985L46.0463 33.9041ZM46.1901 34.7745V47H54.1901V34.7745H46.1901ZM50.1901 43H45.4226V51H50.1901V43ZM49.4226 47V44.4865H41.4226V47H49.4226ZM45.4226 40.4865H45.281V48.4865H45.4226V40.4865ZM41.7233 42.6582C41.6641 42.7734 41.5845 42.8809 41.4583 42.9928L46.7672 48.9774C47.6165 48.224 48.3158 47.3323 48.8388 46.3147L41.7233 42.6582ZM41.4856 42.9688C41.419 43.0269 41.2827 43.1237 41.0119 43.2203L43.6971 50.7561C44.7951 50.3649 45.831 49.793 46.7399 49.0015L41.4856 42.9688ZM41.0505 43.2067C40.8721 43.2682 40.5374 43.3422 39.9825 43.3422V51.3422C41.2214 51.3422 42.468 51.1802 43.6584 50.7697L41.0505 43.2067ZM41.4222 47.8728C42.6949 47.8728 43.9926 47.6192 45.2094 46.9939L41.5528 39.8785C41.5878 39.8605 41.6068 39.8571 41.5964 39.8595C41.5837 39.8623 41.5296 39.8728 41.4222 39.8728V47.8728ZM45.2482 46.9737C46.3808 46.3759 47.3609 45.5169 48.0827 44.3902L41.3465 40.0748C41.3776 40.0262 41.4173 39.9795 41.4591 39.9418C41.4998 39.9051 41.524 39.8934 41.5141 39.8986L45.2482 46.9737ZM48.0827 44.3902C48.8453 43.1998 49.1984 41.8709 49.1984 40.5214H41.1984C41.1984 40.4995 41.2017 40.4332 41.2284 40.3388C41.2556 40.2424 41.2977 40.151 41.3465 40.0748L48.0827 44.3902ZM49.1984 40.5214V38.5979H41.1984V40.5214H49.1984ZM43.0185 35.2441C43.1642 35.1494 43.2738 35.0987 43.3184 35.0793C43.3659 35.0585 43.3804 35.0556 43.3501 35.0651L45.7487 42.6971C46.2058 42.5534 46.7997 42.3278 47.3784 41.9517L43.0185 35.2441ZM43.4207 35.0437C43.2759 35.0862 43.079 35.1362 42.8213 35.1902L44.4602 43.0205C44.8791 42.9328 45.2879 42.8333 45.6781 42.7186L43.4207 35.0437ZM42.9091 35.1728C42.6003 35.2303 42.2916 35.2841 41.9832 35.3343L43.2686 43.2304C43.6367 43.1704 44.0046 43.1063 44.3724 43.0379L42.9091 35.1728ZM42.0731 35.3207C41.7314 35.3684 41.4202 35.4123 41.1397 35.4524L42.2711 43.3719C42.5413 43.3333 42.8437 43.2907 43.1787 43.244L42.0731 35.3207ZM41.125 35.4545C40.272 35.5796 39.4089 35.795 38.5839 36.1486L41.7352 43.5018C41.7913 43.4777 41.9588 43.4178 42.2859 43.3698L41.125 35.4545ZM38.5839 36.1486C37.6231 36.5603 36.6771 37.2079 35.9422 38.1798L42.3235 43.0047C42.0764 43.3314 41.8148 43.4676 41.7352 43.5018L38.5839 36.1486ZM35.9712 38.1419C35.0879 39.2817 34.767 40.5838 34.767 41.7723H42.767C42.767 41.8803 42.753 42.0694 42.6791 42.3076C42.6031 42.553 42.4764 42.8078 42.2945 43.0425L35.9712 38.1419ZM34.767 41.7723C34.767 43.5637 35.4946 45.3623 37.1517 46.5723L41.8693 40.1113C42.1268 40.2993 42.389 40.588 42.5679 40.9656C42.7396 41.3282 42.767 41.6292 42.767 41.7723H34.767ZM37.2098 46.6139C38.5401 47.5493 40.0371 47.8728 41.4222 47.8728V39.8728C41.3402 39.8728 41.3546 39.8632 41.4366 39.886C41.5254 39.9106 41.6622 39.9649 41.8112 40.0697L37.2098 46.6139ZM54.0903 47H50.0903V51H54.0903V47ZM54.0903 28.8741V24.8741H50.0903V28.8741H54.0903ZM58.9639 28.8741H62.9639V24.8741H58.9639V28.8741ZM58.9639 32.0367H54.9639V36.0367H58.9639V32.0367ZM59.1528 32.0367V36.0367H62.1469L62.9906 33.1639L59.1528 32.0367ZM60.8167 29.4878L63.1906 32.7072L63.201 32.6994L63.2115 32.6916L60.8167 29.4878ZM64.3215 28.6617L64.7514 24.6849L64.7514 24.6849L64.3215 28.6617ZM65.0885 28.7915H69.0885V25.6684L66.0586 24.9109L65.0885 28.7915ZM65.0885 33.2522L63.9391 37.0835L69.0885 38.6283V33.2522H65.0885ZM60.9819 33.4646L62.904 36.9725L62.9122 36.968L62.9204 36.9635L60.9819 33.4646ZM59.613 34.7863L56.1788 32.7353L56.1682 32.753L56.1579 32.7708L59.613 34.7863ZM59.1174 47V51H63.1174V47H59.1174ZM58.0903 47V28.8741H50.0903V47H58.0903ZM54.0903 32.8741H58.9639V24.8741H54.0903V32.8741ZM54.9639 28.8741V32.0367H62.9639V28.8741H54.9639ZM58.9639 36.0367H59.1528V28.0367H58.9639V36.0367ZM62.9906 33.1639C63.0624 32.9195 63.1326 32.7934 63.1661 32.7422C63.1952 32.6975 63.2038 32.6974 63.1906 32.7072L58.4428 26.2684C56.8215 27.4638 55.8381 29.1282 55.3149 30.9095L62.9906 33.1639ZM63.2115 32.6916C63.2672 32.65 63.3153 32.6145 63.5072 32.6145V24.6145C61.6695 24.6145 59.9238 25.1612 58.4218 26.2839L63.2115 32.6916ZM63.5072 32.6145C63.5945 32.6145 63.7209 32.6201 63.8915 32.6385L64.7514 24.6849C64.3399 24.6404 63.9235 24.6145 63.5072 24.6145V32.6145ZM63.8915 32.6385C63.9675 32.6468 64.0244 32.655 64.0641 32.6617C64.1042 32.6685 64.1211 32.6728 64.1184 32.6721L66.0586 24.9109C65.6185 24.8009 65.1754 24.7307 64.7514 24.6849L63.8915 32.6385ZM61.0885 28.7915V33.2522H69.0885V28.7915H61.0885ZM66.2379 29.4209C65.7039 29.2607 65.1359 29.1643 64.6328 29.0978L63.5853 37.0289C63.735 37.0487 63.8407 37.0663 63.9095 37.0796C63.9828 37.0937 63.9857 37.0975 63.9391 37.0835L66.2379 29.4209ZM64.6328 29.0978C64.0777 29.0245 63.5181 28.9808 62.9644 28.9808V36.9808C63.1029 36.9808 63.3065 36.9921 63.5853 37.0289L64.6328 29.0978ZM62.9644 28.9808C61.6236 28.9808 60.2826 29.2791 59.0433 29.9657L62.9204 36.9635C62.9084 36.9701 62.8959 36.9759 62.8842 36.9805C62.8724 36.9851 62.8647 36.9871 62.8625 36.9877C62.8568 36.9891 62.8866 36.9808 62.9644 36.9808V28.9808ZM59.0597 29.9567C57.8558 30.6164 56.8795 31.5621 56.1788 32.7353L63.0472 36.8372C63.0425 36.8451 63.0233 36.8738 62.9873 36.9086C62.9511 36.9436 62.9188 36.9644 62.904 36.9725L59.0597 29.9567ZM56.1579 32.7708C55.4268 34.0241 55.1174 35.3898 55.1174 36.7452H63.1174C63.1174 36.6743 63.1251 36.6581 63.1191 36.682C63.1162 36.6933 63.1108 36.7111 63.1018 36.7335C63.0926 36.7559 63.0813 36.7791 63.0681 36.8018L56.1579 32.7708ZM55.1174 36.7452V47H63.1174V36.7452H55.1174ZM59.1174 43H54.0903V51H59.1174V43ZM70.2897 46.2212L68.3073 49.6954L68.3194 49.7023L68.3315 49.7091L70.2897 46.2212ZM67.1979 42.9878L63.6444 44.8244L63.6487 44.8325L67.1979 42.9878ZM67.1979 33.1106L63.6403 31.2821L63.6403 31.2821L67.1979 33.1106ZM70.2543 29.8182L68.2083 26.381L68.1993 26.3864L70.2543 29.8182ZM78.2433 29.2163L76.842 32.9628L76.8591 32.9693L76.8764 32.9755L78.2433 29.2163ZM80.9575 30.9274L78.1436 33.7703L78.1508 33.7775L78.1581 33.7846L80.9575 30.9274ZM82.7748 33.8068L79.0284 35.2085L79.0316 35.2169L82.7748 33.8068ZM83.4238 39.2233V43.2233H87.4238V39.2233H83.4238ZM68.1183 39.2233H64.1183V43.2233H68.1183V39.2233ZM68.1183 36.108V32.108H64.1183V36.108H68.1183ZM78.6918 36.108V40.108H82.6918V36.108H78.6918ZM78.2197 34.1844L74.7347 36.1478L74.7347 36.1478L78.2197 34.1844ZM76.9099 32.8746L74.8882 36.3261L74.9172 36.3431L74.9465 36.3596L76.9099 32.8746ZM72.9566 32.9218L75.0009 36.3599L75.0078 36.3558L75.0146 36.3517L72.9566 32.9218ZM71.5877 34.326L75.0665 36.3005L75.0722 36.2905L75.0778 36.2805L71.5877 34.326ZM71.0803 36.2732L67.0806 36.2292L67.0803 36.2512V36.2732H71.0803ZM71.5759 41.5599L68.0069 43.3659L68.0155 43.3829L68.0243 43.3999L71.5759 41.5599ZM76.721 43.3654L75.4369 39.5771L75.4369 39.5771L76.721 43.3654ZM77.9129 42.6573L75.1543 39.7608L75.1543 39.7608L77.9129 42.6573ZM78.6682 41.5009L78.9315 37.5096L75.978 37.3146L74.9282 40.0823L78.6682 41.5009ZM83.3176 41.8077L87.2313 42.6345L88.185 38.1202L83.581 37.8164L83.3176 41.8077ZM81.8662 44.7343L78.8594 42.0962L78.8576 42.0982L81.8662 44.7343ZM79.0576 46.6696L80.5431 50.3835L80.5497 50.3809L80.5563 50.3782L79.0576 46.6696ZM75.1044 43.354C73.7832 43.354 72.882 43.0893 72.2478 42.7332L68.3315 49.7091C70.3879 50.8635 72.6965 51.354 75.1044 51.354V43.354ZM72.272 42.7469C71.6161 42.3727 71.1233 41.8668 70.7471 41.143L63.6487 44.8325C64.72 46.8937 66.2884 48.5434 68.3073 49.6954L72.272 42.7469ZM70.7513 41.1512C70.377 40.427 70.1122 39.4267 70.1122 38.0197H62.1122C62.1122 40.436 62.5712 42.7478 63.6444 44.8244L70.7513 41.1512ZM70.1122 38.0197C70.1122 36.6785 70.3699 35.6893 70.7555 34.9391L63.6403 31.2821C62.5783 33.3483 62.1122 35.6318 62.1122 38.0197H70.1122ZM70.7555 34.9391C71.1501 34.1714 71.6586 33.6395 72.3092 33.25L68.1993 26.3864C66.2223 27.5703 64.6932 29.2334 63.6403 31.2821L70.7555 34.9391ZM72.3002 33.2554C72.9119 32.8913 73.7319 32.6381 74.9037 32.6381V24.6381C72.5196 24.6381 70.24 25.1717 68.2083 26.381L72.3002 33.2554ZM74.9037 32.6381C75.6626 32.6381 76.297 32.759 76.842 32.9628L79.6447 25.4699C78.1285 24.9027 76.5365 24.6381 74.9037 24.6381V32.6381ZM76.8764 32.9755C77.3825 33.1596 77.7909 33.4213 78.1436 33.7703L83.7714 28.0846C82.5821 26.9074 81.1811 26.0284 79.6103 25.4572L76.8764 32.9755ZM78.1581 33.7846C78.4663 34.0866 78.7738 34.5278 79.0284 35.2085L86.5212 32.4051C85.9105 30.7729 85.0064 29.2945 83.7569 28.0703L78.1581 33.7846ZM79.0316 35.2169C79.2572 35.8158 79.4238 36.6639 79.4238 37.8427H87.4238C87.4238 35.9375 87.1578 34.095 86.518 32.3967L79.0316 35.2169ZM79.4238 37.8427V39.2233H87.4238V37.8427H79.4238ZM83.4238 35.2233H68.1183V43.2233H83.4238V35.2233ZM72.1183 39.2233V36.108H64.1183V39.2233H72.1183ZM68.1183 40.108H78.6918V32.108H68.1183V40.108ZM82.6918 36.108C82.6918 34.7866 82.3987 33.4529 81.7047 32.2211L74.7347 36.1478C74.7224 36.126 74.7121 36.104 74.704 36.0834C74.6959 36.0628 74.6913 36.0469 74.689 36.0376C74.6842 36.0178 74.6918 36.0368 74.6918 36.108H82.6918ZM81.7047 32.2211C81.0314 31.0258 80.0685 30.0629 78.8732 29.3896L74.9465 36.3596C74.9211 36.3452 74.8764 36.315 74.8278 36.2665C74.7793 36.2179 74.7491 36.1732 74.7347 36.1478L81.7047 32.2211ZM78.9315 29.423C77.6824 28.6914 76.3229 28.3907 74.9863 28.3907V36.3907C75.0577 36.3907 75.0705 36.3985 75.0402 36.3909C75.0255 36.3871 75.0031 36.3804 74.9753 36.3692C74.9475 36.3578 74.9179 36.3434 74.8882 36.3261L78.9315 29.423ZM74.9863 28.3907C73.5795 28.3907 72.1765 28.7251 70.8986 29.4918L75.0146 36.3517C74.9984 36.3615 74.9804 36.3706 74.962 36.3783C74.9436 36.3861 74.9286 36.3907 74.919 36.3932C74.9096 36.3957 74.9087 36.3952 74.9184 36.394C74.9282 36.3928 74.9503 36.3907 74.9863 36.3907V28.3907ZM70.9123 29.4836C69.7273 30.1882 68.772 31.1676 68.0977 32.3716L75.0778 36.2805C75.0779 36.2803 75.0666 36.2994 75.0421 36.3245C75.0176 36.3497 74.9993 36.3609 75.0009 36.3599L70.9123 29.4836ZM68.109 32.3516C67.4211 33.5637 67.0953 34.8847 67.0806 36.2292L75.0801 36.3171C75.0804 36.2892 75.0821 36.2716 75.0832 36.2632C75.0843 36.2549 75.085 36.2537 75.0838 36.2582C75.0826 36.2628 75.0803 36.2702 75.0767 36.2791C75.073 36.2881 75.0693 36.2955 75.0665 36.3005L68.109 32.3516ZM67.0803 36.2732V39.2351H75.0803V36.2732H67.0803ZM67.0803 39.2351C67.0803 40.6202 67.3363 42.0408 68.0069 43.3659L75.145 39.7538C75.1547 39.773 75.0803 39.6438 75.0803 39.2351H67.0803ZM68.0243 43.3999C68.7001 44.7045 69.703 45.784 71.0049 46.5351L75.0027 39.6056C75.024 39.6179 75.0591 39.6431 75.0934 39.6794C75.1269 39.7149 75.1357 39.7355 75.1276 39.7199L68.0243 43.3999ZM71.0049 46.5351C72.3318 47.3006 73.7761 47.6014 75.187 47.6014V39.6014C75.0459 39.6014 74.9741 39.5866 74.9552 39.582C74.9397 39.5782 74.9619 39.5821 75.0027 39.6056L71.0049 46.5351ZM75.187 47.6014C76.1222 47.6014 77.0741 47.4693 78.0052 47.1536L75.4369 39.5771C75.4367 39.5772 75.4199 39.583 75.3812 39.5889C75.3419 39.5949 75.2786 39.6014 75.187 39.6014V47.6014ZM78.0052 47.1536C78.9783 46.8238 79.8896 46.2986 80.6715 45.5539L75.1543 39.7608C75.2093 39.7084 75.268 39.6648 75.3242 39.6314C75.3796 39.5985 75.4205 39.5827 75.4369 39.5771L78.0052 47.1536ZM80.6715 45.5539C81.4653 44.7979 82.0378 43.896 82.4082 42.9195L74.9282 40.0823C74.9378 40.0569 74.9596 40.0076 75.0005 39.9451C75.0418 39.8817 75.0939 39.8183 75.1543 39.7608L80.6715 45.5539ZM78.4048 45.4922L83.0543 45.799L83.581 37.8164L78.9315 37.5096L78.4048 45.4922ZM79.404 40.9809C79.3056 41.4469 79.1247 41.7938 78.8594 42.0962L84.8729 47.3723C86.0708 46.0069 86.8577 44.4027 87.2313 42.6345L79.404 40.9809ZM78.8576 42.0982C78.5964 42.3963 78.2022 42.701 77.5589 42.961L80.5563 50.3782C82.2102 49.7098 83.6883 48.7243 84.8747 47.3703L78.8576 42.0982ZM77.572 42.9557C76.994 43.1869 76.1974 43.354 75.1044 43.354V51.354C77.0008 51.354 78.8397 51.0649 80.5431 50.3835L77.572 42.9557ZM108.123 31.2933V35.2933H112.622L112.095 30.8246L108.123 31.2933ZM102.954 31.2933L98.9933 31.8524L99.479 35.2933H102.954V31.2933ZM102.376 29.5114L98.8742 31.4451L98.8804 31.4562L98.8866 31.4674L102.376 29.5114ZM101.255 28.1661L98.7364 31.2738L98.7364 31.2738L101.255 28.1661ZM99.6734 27.3164L98.4085 31.1112L98.416 31.1137L98.4235 31.1161L99.6734 27.3164ZM94.4811 27.9537L96.6868 31.2905L96.6966 31.2841L96.7064 31.2775L94.4811 27.9537ZM92.3216 30.6442L95.9879 32.2436L95.9918 32.2347L92.3216 30.6442ZM92.3216 39.2587L88.6552 40.8581L88.6597 40.8685L88.6643 40.8787L92.3216 39.2587ZM94.4929 41.9139L92.327 45.2768L92.327 45.2768L94.4929 41.9139ZM99.6144 42.5393L98.4416 38.7151L98.4344 38.7173L98.4272 38.7196L99.6144 42.5393ZM101.184 41.7487L103.601 44.9355L103.619 44.9223L103.636 44.909L101.184 41.7487ZM102.317 40.4624L98.901 38.3809L98.8891 38.4005L98.8773 38.4203L102.317 40.4624ZM102.954 38.7395L102.972 34.7396L99.6221 34.7243L99.0193 38.0197L102.954 38.7395ZM108.123 38.7631L112.094 39.2419L112.631 34.7837L108.141 34.7632L108.123 38.7631ZM107.12 41.9729L103.569 40.13L103.564 40.1404L107.12 41.9729ZM104.984 44.7225L107.664 47.6917L107.665 47.6905L104.984 44.7225ZM101.798 46.6342L103.213 50.3756L103.225 50.3706L101.798 46.6342ZM91.8495 45.8671L89.8511 49.3322L89.8581 49.3361L91.8495 45.8671ZM87.8373 41.6307L84.2996 43.4974L84.3058 43.5091L87.8373 41.6307ZM87.8609 28.1897L91.3862 30.0798L91.3862 30.0798L87.8609 28.1897ZM91.8967 23.965L93.8761 27.441L93.8882 27.434L91.8967 23.965ZM101.526 23.0918L100.276 26.8915L100.284 26.8939L101.526 23.0918ZM104.724 24.8147L102.2 27.9175L102.208 27.924L102.216 27.9304L104.724 24.8147ZM106.99 27.5642L103.465 29.4546L103.47 29.4644L103.475 29.4743L106.99 27.5642ZM108.123 27.2933H102.954V35.2933H108.123V27.2933ZM106.915 30.7341C106.76 29.6401 106.429 28.5611 105.865 27.5553L98.8866 31.4674C98.905 31.5001 98.9589 31.609 98.9933 31.8524L106.915 30.7341ZM105.877 27.5777C105.344 26.6112 104.64 25.7607 103.773 25.0583L98.7364 31.2738C98.7822 31.3109 98.8258 31.3573 98.8742 31.4451L105.877 27.5777ZM103.773 25.0584C102.913 24.3615 101.949 23.8542 100.923 23.5167L98.4235 31.1161C98.5934 31.172 98.6837 31.2311 98.7364 31.2738L103.773 25.0584ZM100.938 23.5217C99.8971 23.1746 98.8239 23.0214 97.7499 23.0214V31.0214C98.0605 31.0214 98.2697 31.0649 98.4085 31.1112L100.938 23.5217ZM97.7499 23.0214C95.805 23.0214 93.9198 23.5158 92.2558 24.6298L96.7064 31.2775C96.8991 31.1485 97.1931 31.0214 97.7499 31.0214V23.0214ZM92.2754 24.6168C90.6038 25.7217 89.422 27.2754 88.6513 29.0538L95.9918 32.2347C96.2439 31.6529 96.5017 31.4129 96.6868 31.2905L92.2754 24.6168ZM88.6552 29.0448C87.8669 30.852 87.5545 32.8528 87.5545 34.9161H95.5545C95.5545 33.628 95.7535 32.7809 95.9879 32.2436L88.6552 29.0448ZM87.5545 34.9161C87.5545 37.0089 87.8616 39.0388 88.6552 40.8581L95.9879 37.6593C95.7588 37.1343 95.5545 36.269 95.5545 34.9161H87.5545ZM88.6643 40.8787C89.4477 42.6473 90.6416 44.1912 92.327 45.2768L96.6588 38.551C96.4876 38.4408 96.2339 38.2146 95.9788 37.6387L88.6643 40.8787ZM92.327 45.2768C93.9676 46.3334 95.81 46.8108 97.7145 46.8108V38.8108C97.1802 38.8108 96.8749 38.6902 96.6588 38.551L92.327 45.2768ZM97.7145 46.8108C98.7528 46.8108 99.7911 46.6732 100.802 46.3591L98.4272 38.7196C98.2733 38.7674 98.0451 38.8108 97.7145 38.8108V46.8108ZM100.787 46.3636C101.791 46.0556 102.743 45.5868 103.601 44.9355L98.7663 38.5619C98.7124 38.6029 98.6175 38.6612 98.4416 38.7151L100.787 46.3636ZM103.636 44.909C104.494 44.2431 105.205 43.4333 105.756 42.5046L98.8773 38.4203C98.8309 38.4985 98.7863 38.5462 98.7319 38.5883L103.636 44.909ZM105.733 42.5439C106.321 41.5777 106.692 40.5323 106.889 39.4593L99.0193 38.0197C98.9796 38.2369 98.9259 38.3401 98.901 38.3809L105.733 42.5439ZM102.936 42.7395L108.104 42.7631L108.141 34.7632L102.972 34.7396L102.936 42.7395ZM104.151 38.2843C104.077 38.8987 103.892 39.5083 103.569 40.1301L110.67 43.8158C111.417 42.3764 111.901 40.846 112.094 39.2419L104.151 38.2843ZM103.564 40.1404C103.269 40.7138 102.86 41.2505 102.302 41.7545L107.665 47.6905C108.901 46.5738 109.917 45.2775 110.675 43.8054L103.564 40.1404ZM102.304 41.7532C101.817 42.1921 101.192 42.5836 100.37 42.8977L103.225 50.3706C104.874 49.7407 106.372 48.8577 107.664 47.6917L102.304 41.7532ZM100.383 42.8928C99.6812 43.1581 98.784 43.3304 97.6319 43.3304V51.3304C99.5794 51.3304 101.459 51.0386 103.213 50.3755L100.383 42.8928ZM97.6319 43.3304C96.1033 43.3304 94.8749 42.9916 93.841 42.3981L89.8581 49.3361C92.2228 50.6937 94.8493 51.3304 97.6319 51.3304V43.3304ZM93.848 42.4021C92.8535 41.8286 92.0266 40.9889 91.3688 39.7522L84.3058 43.5091C85.6148 45.97 87.4627 47.9546 89.8511 49.3321L93.848 42.4021ZM91.375 39.764C90.7713 38.6198 90.374 37.0568 90.374 34.9161H82.374C82.374 38.0306 82.9523 40.944 84.2996 43.4974L91.375 39.764ZM90.374 34.9161C90.374 32.7744 90.7765 31.2169 91.3862 30.0798L84.3357 26.2996C82.9628 28.86 82.374 31.7868 82.374 34.9161H90.374ZM91.3862 30.0798C92.0486 28.8443 92.879 28.0088 93.8761 27.441L89.9174 20.4891C87.5159 21.8566 85.6557 23.8375 84.3357 26.2996L91.3862 30.0798ZM93.8882 27.434C94.931 26.8354 96.146 26.5017 97.6319 26.5017V18.5017C94.8695 18.5017 92.2611 19.1436 89.9053 20.496L93.8882 27.434ZM97.6319 26.5017C98.6549 26.5017 99.5264 26.6448 100.276 26.8915L102.776 19.2921C101.134 18.752 99.4096 18.5017 97.6319 18.5017V26.5017ZM100.284 26.8939C101.048 27.1438 101.674 27.4897 102.2 27.9175L107.248 21.7118C105.918 20.6291 104.411 19.8265 102.769 19.2897L100.284 26.8939ZM102.216 27.9304C102.712 28.3302 103.127 28.8251 103.465 29.4546L110.515 25.6739C109.688 24.1321 108.593 22.7939 107.233 21.699L102.216 27.9304ZM103.475 29.4743C103.791 30.0544 104.036 30.7961 104.15 31.7619L112.095 30.8246C111.879 28.9898 111.369 27.2454 110.504 25.6542L103.475 29.4743ZM113.769 46.7404L112.121 50.3851L112.134 50.3911L112.148 50.3969L113.769 46.7404ZM111.622 44.9349L108.263 47.1079L108.276 47.127L108.288 47.1461L111.622 44.9349ZM111.397 39.4003L107.878 37.4991L107.878 37.4991L111.397 39.4003ZM112.908 37.7483L110.718 34.4011L110.718 34.4011L112.908 37.7483ZM115.079 36.8042L114.074 32.9325L114.065 32.9349L115.079 36.8042ZM117.652 36.3558L118.036 40.3373L118.052 40.3358L118.067 40.3341L117.652 36.3558ZM120.201 36.049L120.78 40.0068L120.804 40.0033L120.827 39.9996L120.201 36.049ZM121.605 35.6005L119.366 32.2862L119.366 32.2862L121.605 35.6005ZM121.334 32.9218L118.689 35.9226L118.701 35.9336L118.714 35.9445L121.334 32.9218ZM117.192 32.91L119.561 36.1326L119.576 36.1213L119.592 36.11L117.192 32.91ZM116.129 34.3969L115.806 38.3837L119.063 38.6483L119.972 35.5091L116.129 34.3969ZM111.48 34.0192L107.569 33.1811L106.614 37.6372L111.156 38.0061L111.48 34.0192ZM112.872 31.1635L115.901 33.7764L115.907 33.7691L115.914 33.7618L112.872 31.1635ZM115.551 29.2989L117.023 33.0184L117.03 33.0156L117.037 33.0129L115.551 29.2989ZM122.266 28.9921L121.272 32.8668L121.28 32.8688L122.266 28.9921ZM124.732 30.0896L122.455 33.3784L122.464 33.3842L122.472 33.3899L124.732 30.0896ZM126.443 32.0013L122.917 33.8892L122.921 33.8967L122.925 33.9041L126.443 32.0013ZM127.069 47V51H131.069V47H127.069ZM122.301 47H118.301V51H122.301V47ZM122.301 44.4865H126.301V40.4865H122.301V44.4865ZM122.16 44.4865V40.4865H119.718L118.602 42.6582L122.16 44.4865ZM120.991 45.9851L123.618 49.0015L123.632 48.9895L123.646 48.9774L120.991 45.9851ZM119.233 46.9882L120.537 50.7697L120.556 50.763L120.576 50.7561L119.233 46.9882ZM120.26 43.4362L122.088 46.9939L122.107 46.9839L122.127 46.9737L120.26 43.4362ZM121.593 42.2325L118.225 40.0748L118.225 40.0748L121.593 42.2325ZM122.077 38.5979H126.077V31.2272L119.897 35.2441L122.077 38.5979ZM121.428 38.8811L122.557 42.7186L122.592 42.7082L122.627 42.6971L121.428 38.8811ZM120.519 39.1053L121.251 43.0379L121.295 43.0297L121.339 43.0205L120.519 39.1053ZM119.504 39.2823L120.057 43.244L120.102 43.2377L120.147 43.2304L119.504 39.2823ZM118.584 39.4121L118.018 35.4524L118.011 35.4534L118.004 35.4545L118.584 39.4121ZM117.038 39.8252L118.614 43.5018L118.614 43.5018L117.038 39.8252ZM116.011 40.5922L119.173 43.0425L119.188 43.0237L119.202 43.0047L116.011 40.5922ZM116.389 43.3418L114.03 46.5723L114.059 46.5934L114.088 46.6139L116.389 43.3418ZM116.861 43.3422C116.17 43.3422 115.706 43.2236 115.391 43.0838L112.148 50.3969C113.642 51.0596 115.239 51.3422 116.861 51.3422V43.3422ZM115.417 43.0957C115.168 42.983 115.049 42.8648 114.955 42.7237L108.288 47.1461C109.249 48.5941 110.561 49.6796 112.121 50.3851L115.417 43.0957ZM114.98 42.7619C114.973 42.7519 114.843 42.5556 114.843 41.9375H106.843C106.843 43.711 107.231 45.5129 108.263 47.1079L114.98 42.7619ZM114.843 41.9375C114.843 41.4045 114.942 41.2551 114.917 41.3016L107.878 37.4991C107.113 38.9145 106.843 40.4565 106.843 41.9375H114.843ZM114.917 41.3016C114.978 41.1889 115.029 41.1403 115.098 41.0954L110.718 34.4011C109.512 35.1902 108.557 36.2429 107.878 37.4991L114.917 41.3016ZM115.098 41.0954C115.34 40.9372 115.659 40.7873 116.093 40.6735L114.065 32.9349C112.879 33.2459 111.75 33.7254 110.718 34.4011L115.098 41.0954ZM116.084 40.6758C116.686 40.5197 117.335 40.4049 118.036 40.3373L117.268 32.3743C116.175 32.4797 115.109 32.6639 114.074 32.9325L116.084 40.6758ZM118.067 40.3341C119.147 40.2213 120.058 40.1125 120.78 40.0068L119.622 32.0911C119.054 32.1742 118.265 32.2699 117.236 32.3774L118.067 40.3341ZM120.827 39.9996C121.637 39.8712 122.813 39.6121 123.844 38.9149L119.366 32.2862C119.507 32.1905 119.623 32.1319 119.694 32.0997C119.766 32.0669 119.811 32.0523 119.819 32.0497C119.828 32.0468 119.813 32.052 119.769 32.0619C119.726 32.0717 119.662 32.0844 119.574 32.0983L120.827 39.9996ZM123.844 38.9149C125.357 37.893 126.042 36.2891 126.042 34.7273H118.042C118.042 34.4129 118.103 33.9493 118.355 33.4458C118.614 32.9278 118.988 32.5413 119.366 32.2862L123.844 38.9149ZM126.042 34.7273V34.6565H118.042V34.7273H126.042ZM126.042 34.6565C126.042 32.999 125.475 31.2176 123.953 29.899L118.714 35.9445C118.475 35.7375 118.281 35.4667 118.161 35.1738C118.049 34.8986 118.042 34.7014 118.042 34.6565H126.042ZM123.978 29.9209C122.544 28.6566 120.807 28.3081 119.351 28.3081V36.3081C119.471 36.3081 119.439 36.3234 119.307 36.2827C119.162 36.2377 118.928 36.1336 118.689 35.9226L123.978 29.9209ZM119.351 28.3081C117.883 28.3081 116.227 28.6336 114.792 29.71L119.592 36.11C119.417 36.2406 119.269 36.2942 119.206 36.3118C119.152 36.3268 119.188 36.3081 119.351 36.3081V28.3081ZM114.822 29.6874C113.628 30.5655 112.722 31.7818 112.287 33.2846L119.972 35.5091C119.935 35.635 119.871 35.7732 119.78 35.9017C119.69 36.0276 119.604 36.1012 119.561 36.1326L114.822 29.6874ZM116.453 30.41L111.804 30.0324L111.156 38.0061L115.806 38.3837L116.453 30.41ZM115.391 34.8573C115.496 34.3697 115.675 34.0387 115.901 33.7764L109.844 28.5505C108.686 29.8931 107.936 31.466 107.569 33.1811L115.391 34.8573ZM115.914 33.7618C116.14 33.4974 116.472 33.2363 117.023 33.0184L114.08 25.5795C112.443 26.227 110.99 27.2089 109.831 28.5652L115.914 33.7618ZM117.037 33.0129C117.574 32.7979 118.327 32.6381 119.375 32.6381V24.6381C117.527 24.6381 115.731 24.9189 114.066 25.585L117.037 33.0129ZM119.375 32.6381C120.067 32.6381 120.695 32.7188 121.272 32.8668L123.259 25.1175C121.996 24.7934 120.697 24.6381 119.375 24.6381V32.6381ZM121.28 32.8688C121.793 32.9991 122.169 33.1799 122.455 33.3784L127.009 26.8008C125.864 26.008 124.596 25.4572 123.251 25.1155L121.28 32.8688ZM122.472 33.3899C122.663 33.5204 122.8 33.6717 122.917 33.8892L129.97 30.1134C129.252 28.7732 128.249 27.65 126.992 26.7892L122.472 33.3899ZM122.925 33.9041C122.961 33.9711 123.069 34.2104 123.069 34.7745H131.069C131.069 33.183 130.759 31.5735 129.962 30.0985L122.925 33.9041ZM123.069 34.7745V47H131.069V34.7745H123.069ZM127.069 43H122.301V51H127.069V43ZM126.301 47V44.4865H118.301V47H126.301ZM122.301 40.4865H122.16V48.4865H122.301V40.4865ZM118.602 42.6582C118.543 42.7734 118.463 42.8809 118.337 42.9928L123.646 48.9774C124.495 48.224 125.194 47.3323 125.717 46.3147L118.602 42.6582ZM118.364 42.9688C118.298 43.0269 118.161 43.1237 117.89 43.2203L120.576 50.7561C121.674 50.3649 122.71 49.793 123.618 49.0015L118.364 42.9688ZM117.929 43.2067C117.751 43.2682 117.416 43.3422 116.861 43.3422V51.3422C118.1 51.3422 119.347 51.1802 120.537 50.7697L117.929 43.2067ZM118.301 47.8728C119.574 47.8728 120.871 47.6192 122.088 46.9939L118.431 39.8785C118.466 39.8605 118.485 39.8571 118.475 39.8595C118.462 39.8623 118.408 39.8728 118.301 39.8728V47.8728ZM122.127 46.9737C123.259 46.3759 124.24 45.5169 124.961 44.3902L118.225 40.0748C118.256 40.0262 118.296 39.9795 118.338 39.9418C118.378 39.9051 118.403 39.8934 118.393 39.8986L122.127 46.9737ZM124.961 44.3902C125.724 43.1998 126.077 41.8709 126.077 40.5214H118.077C118.077 40.4995 118.08 40.4332 118.107 40.3388C118.134 40.2424 118.176 40.151 118.225 40.0748L124.961 44.3902ZM126.077 40.5214V38.5979H118.077V40.5214H126.077ZM119.897 35.2441C120.043 35.1494 120.152 35.0987 120.197 35.0793C120.244 35.0585 120.259 35.0556 120.229 35.0651L122.627 42.6971C123.084 42.5534 123.678 42.3278 124.257 41.9517L119.897 35.2441ZM120.299 35.0437C120.155 35.0862 119.958 35.1362 119.7 35.1902L121.339 43.0205C121.758 42.9328 122.167 42.8333 122.557 42.7186L120.299 35.0437ZM119.788 35.1728C119.479 35.2303 119.17 35.2841 118.862 35.3343L120.147 43.2304C120.515 43.1704 120.883 43.1063 121.251 43.0379L119.788 35.1728ZM118.952 35.3207C118.61 35.3684 118.299 35.4123 118.018 35.4524L119.15 43.3719C119.42 43.3333 119.722 43.2907 120.057 43.244L118.952 35.3207ZM118.004 35.4545C117.151 35.5796 116.287 35.795 115.462 36.1486L118.614 43.5018C118.67 43.4777 118.837 43.4178 119.164 43.3698L118.004 35.4545ZM115.462 36.1486C114.502 36.5603 113.556 37.2079 112.821 38.1798L119.202 43.0047C118.955 43.3314 118.693 43.4676 118.614 43.5018L115.462 36.1486ZM112.85 38.1419C111.966 39.2817 111.646 40.5838 111.646 41.7723H119.646C119.646 41.8803 119.632 42.0694 119.558 42.3076C119.482 42.553 119.355 42.8078 119.173 43.0425L112.85 38.1419ZM111.646 41.7723C111.646 43.5637 112.373 45.3623 114.03 46.5723L118.748 40.1113C119.005 40.2993 119.268 40.588 119.446 40.9656C119.618 41.3282 119.646 41.6292 119.646 41.7723H111.646ZM114.088 46.6139C115.419 47.5493 116.916 47.8728 118.301 47.8728V39.8728C118.219 39.8728 118.233 39.8632 118.315 39.886C118.404 39.9106 118.541 39.9649 118.69 40.0697L114.088 46.6139ZM135.996 36.521L131.996 36.4806L131.996 36.5008V36.521H135.996ZM135.996 47V51H139.996V47H135.996ZM130.969 47H126.969V51H130.969V47ZM130.969 28.8741V24.8741H126.969V28.8741H130.969ZM135.76 28.8741H139.76V24.8741H135.76V28.8741ZM135.76 32.0721H131.76V36.0721H135.76V32.0721ZM135.972 32.0721V36.0721H138.73L139.711 33.4949L135.972 32.0721ZM137.99 29.5704L140.17 32.9241L140.18 32.9178L140.19 32.9114L137.99 29.5704ZM146.9 31.8243L143.333 33.6351L143.339 33.6462L146.9 31.8243ZM147.679 47V51H151.679V47H147.679ZM142.652 47H138.652V51H142.652V47ZM142.652 36.3558L138.652 36.3274L138.652 36.3416V36.3558H142.652ZM141.802 33.7596L138.847 36.4558L138.856 36.4651L138.864 36.4743L141.802 33.7596ZM137.636 33.2522L135.68 29.7631L135.669 29.7695L135.657 29.7759L137.636 33.2522ZM136.433 34.5267L132.885 32.6781L132.88 32.6877L132.875 32.6973L136.433 34.5267ZM131.996 36.521V47H139.996V36.521H131.996ZM135.996 43H130.969V51H135.996V43ZM134.969 47V28.8741H126.969V47H134.969ZM130.969 32.8741H135.76V24.8741H130.969V32.8741ZM131.76 28.8741V32.0721H139.76V28.8741H131.76ZM135.76 36.0721H135.972V28.0721H135.76V36.0721ZM139.711 33.4949C139.811 33.2318 139.939 33.0747 140.17 32.9241L135.81 26.2166C134.154 27.2933 132.936 28.804 132.234 30.6493L139.711 33.4949ZM140.19 32.9114C140.365 32.7959 140.71 32.6381 141.424 32.6381V24.6381C139.448 24.6381 137.504 25.1018 135.791 26.2294L140.19 32.9114ZM141.424 32.6381C142.085 32.6381 142.459 32.7769 142.689 32.9119L146.745 26.0164C145.102 25.05 143.281 24.6381 141.424 24.6381V32.6381ZM142.689 32.9119C142.928 33.053 143.14 33.2537 143.333 33.6351L150.466 30.0135C149.622 28.3494 148.377 26.9767 146.745 26.0164L142.689 32.9119ZM143.339 33.6462C143.509 33.9798 143.679 34.5378 143.679 35.4589H151.679C151.679 33.5636 151.329 31.6986 150.461 30.0024L143.339 33.6462ZM143.679 35.4589V47H151.679V35.4589H143.679ZM147.679 43H142.652V51H147.679V43ZM146.652 47V36.3558H138.652V47H146.652ZM146.651 36.3841C146.664 34.5839 146.196 32.6214 144.74 31.045L138.864 36.4743C138.803 36.4081 138.752 36.3379 138.713 36.2698C138.674 36.2025 138.653 36.1491 138.643 36.1189C138.625 36.0626 138.653 36.1139 138.652 36.3274L146.651 36.3841ZM144.757 31.0634C143.286 29.4518 141.338 28.8156 139.43 28.8156V36.8156C139.518 36.8156 139.452 36.829 139.299 36.768C139.131 36.7011 138.968 36.588 138.847 36.4558L144.757 31.0634ZM139.43 28.8156C138.163 28.8156 136.875 29.0934 135.68 29.7631L139.592 36.7413C139.524 36.7794 139.462 36.801 139.42 36.8112C139.38 36.8209 139.379 36.8156 139.43 36.8156V28.8156ZM135.657 29.7759C134.43 30.4746 133.506 31.4877 132.885 32.6781L139.98 36.3752C139.968 36.3979 139.932 36.4596 139.86 36.5356C139.787 36.6131 139.701 36.6795 139.615 36.7284L135.657 29.7759ZM132.875 32.6973C132.244 33.9259 132.009 35.2356 131.996 36.4806L139.996 36.5614C139.999 36.2487 140.055 36.2288 139.99 36.3561L132.875 32.6973ZM167.89 28.8741L171.666 30.1942L173.526 24.8741H167.89V28.8741ZM161.553 47V51H164.392L165.329 48.3201L161.553 47ZM155.889 47L152.113 48.3201L153.05 51H155.889V47ZM149.552 28.8741V24.8741H143.916L145.776 30.1942L149.552 28.8741ZM154.862 28.8741L158.704 27.7591L157.866 24.8741H154.862V28.8741ZM158.627 41.8431L154.785 42.9581L155.623 45.8431H158.627V41.8431ZM158.816 41.8431V45.8431H161.822L162.658 42.9549L158.816 41.8431ZM162.568 28.8741V24.8741H159.562L158.726 27.7623L162.568 28.8741ZM164.114 27.554L157.777 45.6799L165.329 48.3201L171.666 30.1942L164.114 27.554ZM161.553 43H155.889V51H161.553V43ZM159.665 45.6799L153.328 27.554L145.776 30.1942L152.113 48.3201L159.665 45.6799ZM149.552 32.8741H154.862V24.8741H149.552V32.8741ZM151.021 29.9892L154.785 42.9581L162.468 40.7281L158.704 27.7591L151.021 29.9892ZM158.627 45.8431H158.816V37.8431H158.627V45.8431ZM162.658 42.9549L166.411 29.9859L158.726 27.7623L154.973 40.7313L162.658 42.9549ZM162.568 32.8741H167.89V24.8741H162.568V32.8741ZM172.053 46.7404L170.405 50.3851L170.418 50.3911L170.431 50.3969L172.053 46.7404ZM169.905 44.9349L166.547 47.1079L166.559 47.127L166.572 47.1461L169.905 44.9349ZM169.681 39.4003L166.162 37.4991L166.162 37.4991L169.681 39.4003ZM171.192 37.7483L169.001 34.4011L169.001 34.4011L171.192 37.7483ZM173.363 36.8042L172.358 32.9325L172.349 32.9349L173.363 36.8042ZM175.935 36.3558L176.32 40.3373L176.335 40.3358L176.351 40.3341L175.935 36.3558ZM178.484 36.049L179.064 40.0068L179.087 40.0033L179.111 39.9996L178.484 36.049ZM179.889 35.6005L177.649 32.2862L177.649 32.2862L179.889 35.6005ZM179.617 32.9218L176.972 35.9226L176.985 35.9336L176.998 35.9445L179.617 32.9218ZM175.475 32.91L177.845 36.1326L177.86 36.1213L177.875 36.11L175.475 32.91ZM174.413 34.3969L174.089 38.3837L177.347 38.6483L178.255 35.5091L174.413 34.3969ZM169.764 34.0192L165.852 33.1811L164.898 37.6372L169.44 38.0061L169.764 34.0192ZM171.156 31.1635L174.185 33.7764L174.191 33.7691L174.197 33.7618L171.156 31.1635ZM173.835 29.2989L175.307 33.0184L175.314 33.0156L175.32 33.0129L173.835 29.2989ZM180.55 28.9921L179.556 32.8668L179.564 32.8688L180.55 28.9921ZM183.016 30.0896L180.739 33.3784L180.747 33.3842L180.756 33.3899L183.016 30.0896ZM184.727 32.0013L181.201 33.8892L181.204 33.8967L181.209 33.9041L184.727 32.0013ZM185.352 47V51H189.352V47H185.352ZM180.585 47H176.585V51H180.585V47ZM180.585 44.4865H184.585V40.4865H180.585V44.4865ZM180.443 44.4865V40.4865H178.002L176.886 42.6582L180.443 44.4865ZM179.275 45.9851L181.902 49.0015L181.916 48.9895L181.929 48.9774L179.275 45.9851ZM177.517 46.9882L178.821 50.7697L178.84 50.763L178.859 50.7561L177.517 46.9882ZM178.543 43.4362L180.372 46.9939L180.391 46.9839L180.41 46.9737L178.543 43.4362ZM179.877 42.2325L176.509 40.0748L176.509 40.0748L179.877 42.2325ZM180.361 38.5979H184.361V31.2272L178.181 35.2441L180.361 38.5979ZM179.712 38.8811L180.84 42.7186L180.876 42.7082L180.911 42.6971L179.712 38.8811ZM178.803 39.1053L179.535 43.0379L179.579 43.0297L179.622 43.0205L178.803 39.1053ZM177.788 39.2823L178.341 43.244L178.386 43.2377L178.431 43.2304L177.788 39.2823ZM176.868 39.4121L176.302 35.4524L176.295 35.4534L176.287 35.4545L176.868 39.4121ZM175.322 39.8252L176.897 43.5018L176.897 43.5018L175.322 39.8252ZM174.295 40.5922L177.457 43.0425L177.471 43.0237L177.486 43.0047L174.295 40.5922ZM174.673 43.3418L172.314 46.5723L172.343 46.5934L172.372 46.6139L174.673 43.3418ZM175.145 43.3422C174.454 43.3422 173.99 43.2236 173.675 43.0838L170.431 50.3969C171.926 51.0596 173.523 51.3422 175.145 51.3422V43.3422ZM173.701 43.0957C173.452 42.983 173.332 42.8648 173.239 42.7237L166.572 47.1461C167.533 48.5941 168.845 49.6796 170.405 50.3851L173.701 43.0957ZM173.264 42.7619C173.257 42.7519 173.126 42.5556 173.126 41.9375H165.126C165.126 43.711 165.515 45.5129 166.547 47.1079L173.264 42.7619ZM173.126 41.9375C173.126 41.4045 173.225 41.2551 173.2 41.3016L166.162 37.4991C165.397 38.9145 165.126 40.4565 165.126 41.9375H173.126ZM173.2 41.3016C173.261 41.1889 173.313 41.1403 173.382 41.0954L169.001 34.4011C167.796 35.1902 166.84 36.2429 166.162 37.4991L173.2 41.3016ZM173.382 41.0954C173.623 40.9372 173.943 40.7873 174.377 40.6735L172.349 32.9349C171.162 33.2459 170.034 33.7254 169.001 34.4011L173.382 41.0954ZM174.368 40.6758C174.97 40.5197 175.619 40.4049 176.32 40.3373L175.551 32.3743C174.458 32.4797 173.393 32.6639 172.358 32.9325L174.368 40.6758ZM176.351 40.3341C177.431 40.2213 178.341 40.1125 179.064 40.0068L177.905 32.0911C177.337 32.1742 176.548 32.2699 175.52 32.3774L176.351 40.3341ZM179.111 39.9996C179.92 39.8712 181.096 39.6121 182.128 38.9149L177.649 32.2862C177.791 32.1905 177.907 32.1319 177.978 32.0997C178.049 32.0669 178.094 32.0523 178.103 32.0497C178.111 32.0468 178.097 32.052 178.053 32.0619C178.009 32.0717 177.945 32.0844 177.858 32.0983L179.111 39.9996ZM182.128 38.9149C183.64 37.893 184.325 36.2891 184.325 34.7273H176.325C176.325 34.4129 176.387 33.9493 176.638 33.4458C176.897 32.9278 177.272 32.5413 177.649 32.2862L182.128 38.9149ZM184.325 34.7273V34.6565H176.325V34.7273H184.325ZM184.325 34.6565C184.325 32.999 183.758 31.2176 182.237 29.899L176.998 35.9445C176.759 35.7375 176.564 35.4667 176.445 35.1738C176.333 34.8986 176.325 34.7014 176.325 34.6565H184.325ZM182.262 29.9209C180.827 28.6566 179.09 28.3081 177.635 28.3081V36.3081C177.754 36.3081 177.722 36.3234 177.591 36.2827C177.445 36.2377 177.212 36.1336 176.972 35.9226L182.262 29.9209ZM177.635 28.3081C176.166 28.3081 174.51 28.6336 173.075 29.71L177.875 36.11C177.701 36.2406 177.553 36.2942 177.49 36.3118C177.436 36.3268 177.472 36.3081 177.635 36.3081V28.3081ZM173.106 29.6874C171.911 30.5655 171.006 31.7818 170.571 33.2846L178.255 35.5091C178.219 35.635 178.155 35.7732 178.063 35.9017C177.973 36.0276 177.887 36.1012 177.845 36.1326L173.106 29.6874ZM174.737 30.41L170.087 30.0324L169.44 38.0061L174.089 38.3837L174.737 30.41ZM173.675 34.8573C173.779 34.3697 173.958 34.0387 174.185 33.7764L168.128 28.5505C166.969 29.8931 166.22 31.466 165.852 33.1811L173.675 34.8573ZM174.197 33.7618C174.423 33.4974 174.756 33.2363 175.307 33.0184L172.363 25.5795C170.727 26.227 169.274 27.2089 168.115 28.5652L174.197 33.7618ZM175.32 33.0129C175.858 32.7979 176.611 32.6381 177.658 32.6381V24.6381C175.811 24.6381 174.015 24.9189 172.349 25.585L175.32 33.0129ZM177.658 32.6381C178.35 32.6381 178.979 32.7188 179.556 32.8668L181.543 25.1175C180.279 24.7934 178.98 24.6381 177.658 24.6381V32.6381ZM179.564 32.8688C180.076 32.9991 180.452 33.1799 180.739 33.3784L185.293 26.8008C184.147 26.008 182.879 25.4572 181.535 25.1155L179.564 32.8688ZM180.756 33.3899C180.946 33.5204 181.084 33.6717 181.201 33.8892L188.253 30.1134C187.536 28.7732 186.533 27.65 185.276 26.7892L180.756 33.3899ZM181.209 33.9041C181.245 33.9711 181.352 34.2104 181.352 34.7745H189.352C189.352 33.183 189.043 31.5735 188.245 30.0985L181.209 33.9041ZM181.352 34.7745V47H189.352V34.7745H181.352ZM185.352 43H180.585V51H185.352V43ZM184.585 47V44.4865H176.585V47H184.585ZM180.585 40.4865H180.443V48.4865H180.585V40.4865ZM176.886 42.6582C176.826 42.7734 176.747 42.8809 176.621 42.9928L181.929 48.9774C182.779 48.224 183.478 47.3323 184.001 46.3147L176.886 42.6582ZM176.648 42.9688C176.581 43.0269 176.445 43.1237 176.174 43.2203L178.859 50.7561C179.957 50.3649 180.993 49.793 181.902 49.0015L176.648 42.9688ZM176.213 43.2067C176.034 43.2682 175.7 43.3422 175.145 43.3422V51.3422C176.384 51.3422 177.63 51.1802 178.821 50.7697L176.213 43.2067ZM176.584 47.8728C177.857 47.8728 179.155 47.6192 180.372 46.9939L176.715 39.8785C176.75 39.8605 176.769 39.8571 176.759 39.8595C176.746 39.8623 176.692 39.8728 176.584 39.8728V47.8728ZM180.41 46.9737C181.543 46.3759 182.523 45.5169 183.245 44.3902L176.509 40.0748C176.54 40.0262 176.58 39.9795 176.621 39.9418C176.662 39.9051 176.686 39.8934 176.676 39.8986L180.41 46.9737ZM183.245 44.3902C184.008 43.1998 184.361 41.8709 184.361 40.5214H176.361C176.361 40.4995 176.364 40.4332 176.391 40.3388C176.418 40.2424 176.46 40.151 176.509 40.0748L183.245 44.3902ZM184.361 40.5214V38.5979H176.361V40.5214H184.361ZM178.181 35.2441C178.326 35.1494 178.436 35.0987 178.481 35.0793C178.528 35.0585 178.543 35.0556 178.512 35.0651L180.911 42.6971C181.368 42.5534 181.962 42.3278 182.541 41.9517L178.181 35.2441ZM178.583 35.0437C178.438 35.0862 178.241 35.1362 177.984 35.1902L179.622 43.0205C180.041 42.9328 180.45 42.8333 180.84 42.7186L178.583 35.0437ZM178.071 35.1728C177.763 35.2303 177.454 35.2841 177.145 35.3343L178.431 43.2304C178.799 43.1704 179.167 43.1063 179.535 43.0379L178.071 35.1728ZM177.235 35.3207C176.894 35.3684 176.582 35.4123 176.302 35.4524L177.433 43.3719C177.704 43.3333 178.006 43.2907 178.341 43.244L177.235 35.3207ZM176.287 35.4545C175.434 35.5796 174.571 35.795 173.746 36.1486L176.897 43.5018C176.954 43.4777 177.121 43.4178 177.448 43.3698L176.287 35.4545ZM173.746 36.1486C172.785 36.5603 171.839 37.2079 171.104 38.1798L177.486 43.0047C177.239 43.3314 176.977 43.4676 176.897 43.5018L173.746 36.1486ZM171.133 38.1419C170.25 39.2817 169.929 40.5838 169.929 41.7723H177.929C177.929 41.8803 177.915 42.0694 177.841 42.3076C177.765 42.553 177.639 42.8078 177.457 43.0425L171.133 38.1419ZM169.929 41.7723C169.929 43.5637 170.657 45.3623 172.314 46.5723L177.032 40.1113C177.289 40.2993 177.551 40.588 177.73 40.9656C177.902 41.3282 177.929 41.6292 177.929 41.7723H169.929ZM172.372 46.6139C173.702 47.5493 175.199 47.8728 176.584 47.8728V39.8728C176.502 39.8728 176.517 39.8632 176.599 39.886C176.688 39.9106 176.824 39.9649 176.973 40.0697L172.372 46.6139ZM204.334 34.0428L204.58 38.0353L208.861 37.7718L208.299 33.5191L204.334 34.0428ZM199.732 34.326L195.809 35.1105L196.494 38.5329L199.977 38.3185L199.732 34.326ZM199.224 33.264L196.108 35.772L196.123 35.7909L196.139 35.8095L199.224 33.264ZM198.197 32.4969L196.491 36.1147L196.532 36.1339L196.573 36.1522L198.197 32.4969ZM194.728 32.6976L196.793 36.1231L196.812 36.112L196.83 36.1007L194.728 32.6976ZM194.445 35.0931L191.83 38.1204L191.83 38.1204L194.445 35.0931ZM196.227 35.8129L195.386 39.7236L195.411 39.7291L195.437 39.7342L196.227 35.8129ZM199.507 36.4738L200.312 32.5555L200.305 32.554L200.297 32.5525L199.507 36.4738ZM203.449 38.2203L200.729 41.1534L200.729 41.1534L203.449 38.2203ZM203.697 44.5101L200.544 42.0485L200.537 42.0572L200.53 42.0658L203.697 44.5101ZM200.841 46.6106L202.364 50.3093L202.376 50.3043L200.841 46.6106ZM190.94 45.8553L188.622 49.1152L188.632 49.1225L188.643 49.1297L190.94 45.8553ZM188.45 41.7487L188.24 37.7542L183.88 37.9831L184.489 42.3068L188.45 41.7487ZM193.395 41.4891L197.314 40.6884L196.624 37.314L193.185 37.4946L193.395 41.4891ZM194.48 43.1648L192.251 46.486L192.267 46.4966L192.283 46.507L194.48 43.1648ZM198.811 43.2238L200.949 46.6045L200.955 46.6005L200.962 46.5964L198.811 43.2238ZM199.637 41.8903L203.637 41.9483L203.638 41.8848L203.637 41.8213L199.637 41.8903ZM199.059 40.7692L196.576 43.9054L196.596 43.9215L196.617 43.9373L199.059 40.7692ZM197.312 40.0848L198.097 36.1625L198.094 36.1619L197.312 40.0848ZM194.173 39.4594L193.389 43.3817L193.392 43.3822L194.173 39.4594ZM190.22 37.6184L187.366 40.421L187.373 40.4276L187.379 40.434L190.22 37.6184ZM189.878 31.2697L186.689 28.8554L186.682 28.8649L186.674 28.8745L189.878 31.2697ZM192.557 29.3226L191.089 25.6017L191.08 25.6051L192.557 29.3226ZM202.021 30.0896L199.649 33.3103L199.658 33.317L202.021 30.0896ZM204.088 30.0504L199.486 30.3336L199.977 38.3185L204.58 38.0353L204.088 30.0504ZM203.654 33.5416C203.444 32.4898 202.982 31.5331 202.31 30.7185L196.139 35.8095C195.986 35.6242 195.862 35.3756 195.809 35.1105L203.654 33.5416ZM202.34 30.7559C201.635 29.8797 200.756 29.2568 199.822 28.8417L196.573 36.1522C196.489 36.1147 196.294 36.0031 196.108 35.772L202.34 30.7559ZM199.904 28.8792C198.832 28.3737 197.721 28.2019 196.699 28.2019V36.2019C196.841 36.2019 196.729 36.2268 196.491 36.1147L199.904 28.8792ZM196.699 28.2019C195.354 28.2019 193.928 28.4903 192.626 29.2944L196.83 36.1007C196.723 36.167 196.636 36.1953 196.598 36.205C196.564 36.2136 196.59 36.2019 196.699 36.2019V28.2019ZM192.663 29.272C191.142 30.189 189.926 31.817 189.926 33.9956H197.926C197.926 34.4152 197.812 34.9088 197.529 35.3673C197.26 35.8012 196.948 36.0298 196.793 36.1231L192.663 29.272ZM189.926 33.9956C189.926 35.6642 190.662 37.1109 191.83 38.1204L197.059 32.0658C197.253 32.2332 197.49 32.5012 197.671 32.8838C197.855 33.2722 197.926 33.6621 197.926 33.9956H189.926ZM191.83 38.1204C192.96 39.0958 194.373 39.5057 195.386 39.7236L197.067 31.9023C196.939 31.8746 196.84 31.849 196.767 31.8277C196.694 31.8062 196.656 31.7918 196.648 31.7885C196.639 31.7848 196.674 31.7982 196.74 31.836C196.805 31.8733 196.921 31.9459 197.059 32.0658L191.83 38.1204ZM195.437 39.7342L198.717 40.395L200.297 32.5525L197.017 31.8917L195.437 39.7342ZM198.703 40.392C200.096 40.678 200.611 41.0438 200.729 41.1534L206.169 35.2872C204.556 33.7918 202.444 32.9933 200.312 32.5555L198.703 40.392ZM200.729 41.1534C200.746 41.1688 200.746 41.1717 200.738 41.1613C200.731 41.1505 200.725 41.1389 200.722 41.1316C200.714 41.1116 200.747 41.1754 200.747 41.3829H208.747C208.747 39.0954 207.942 36.9317 206.169 35.2872L200.729 41.1534ZM200.747 41.3829C200.747 41.7211 200.669 41.8874 200.544 42.0485L206.85 46.9716C208.124 45.339 208.747 43.4205 208.747 41.3829H200.747ZM200.53 42.0658C200.327 42.3294 199.977 42.638 199.306 42.9169L202.376 50.3043C204.128 49.5762 205.682 48.4844 206.863 46.9543L200.53 42.0658ZM199.318 42.9119C198.687 43.1717 197.833 43.354 196.675 43.354V51.354C198.665 51.354 200.587 51.0407 202.364 50.3093L199.318 42.9119ZM196.675 43.354C194.794 43.354 193.776 42.9591 193.238 42.581L188.643 49.1297C190.951 50.7498 193.757 51.354 196.675 51.354V43.354ZM193.258 42.5955C192.743 42.2295 192.503 41.8407 192.411 41.1906L184.489 42.3068C184.885 45.1183 186.304 47.4672 188.622 49.1152L193.258 42.5955ZM188.66 45.7432L193.604 45.4836L193.185 37.4946L188.24 37.7542L188.66 45.7432ZM189.476 42.2897C189.817 43.9606 190.731 45.4654 192.251 46.486L196.71 39.8436C196.854 39.9405 197.01 40.0887 197.135 40.2818C197.257 40.4695 197.301 40.6245 197.314 40.6884L189.476 42.2897ZM192.283 46.507C193.681 47.4267 195.244 47.7312 196.687 47.7312V39.7312C196.515 39.7312 196.448 39.7128 196.457 39.7152C196.463 39.7167 196.489 39.7238 196.529 39.7412C196.569 39.7587 196.621 39.785 196.678 39.8226L192.283 46.507ZM196.687 47.7312C198.04 47.7312 199.57 47.4765 200.949 46.6045L196.673 39.843C196.829 39.7445 196.938 39.7164 196.949 39.7138C196.954 39.7127 196.937 39.7172 196.892 39.722C196.847 39.7267 196.78 39.7312 196.687 39.7312V47.7312ZM200.962 46.5964C202.395 45.6822 203.605 44.1022 203.637 41.9483L195.638 41.8323C195.644 41.4083 195.765 40.9423 196.024 40.5243C196.267 40.1318 196.54 39.9278 196.66 39.8511L200.962 46.5964ZM203.637 41.8213C203.607 40.0873 202.792 38.5963 201.501 37.6012L196.617 43.9373C196.404 43.773 196.138 43.5013 195.932 43.1014C195.723 42.6964 195.643 42.2922 195.638 41.9593L203.637 41.8213ZM201.542 37.633C200.442 36.7627 199.141 36.3713 198.097 36.1625L196.528 44.0071C196.636 44.0288 196.719 44.0493 196.78 44.0663C196.841 44.0835 196.872 44.0953 196.88 44.0981C196.887 44.1011 196.862 44.0918 196.812 44.0644C196.762 44.037 196.679 43.9866 196.576 43.9054L201.542 37.633ZM198.094 36.1619L194.955 35.5365L193.392 43.3822L196.531 44.0077L198.094 36.1619ZM194.958 35.537C193.622 35.2699 193.161 34.9035 193.061 34.8028L187.379 40.434C189.01 42.0799 191.185 42.9408 193.389 43.3817L194.958 35.537ZM193.074 34.8158C193.032 34.7727 192.934 34.7048 192.934 34.2788H184.934C184.934 36.5592 185.693 38.7177 187.366 40.421L193.074 34.8158ZM192.934 34.2788C192.934 33.8799 193.025 33.7406 193.082 33.6649L186.674 28.8745C185.472 30.4823 184.934 32.3491 184.934 34.2788H192.934ZM193.067 33.684C193.193 33.5179 193.447 33.2731 194.033 33.04L191.08 25.6051C189.37 26.2846 187.837 27.3379 186.689 28.8554L193.067 33.684ZM194.025 33.0434C194.614 32.8109 195.449 32.6381 196.616 32.6381V24.6381C194.683 24.6381 192.812 24.9217 191.089 25.6017L194.025 33.0434ZM196.616 32.6381C198.387 32.6381 199.25 33.0167 199.649 33.3103L204.393 26.8689C202.164 25.2272 199.424 24.6381 196.616 24.6381V32.6381ZM199.658 33.317C200.072 33.6205 200.287 33.9479 200.368 34.5666L208.299 33.5191C207.941 30.8021 206.613 28.494 204.384 26.8621L199.658 33.317Z" fill="url(#paint0_linear_779_1592)" mask="url(#path-1-outside-1_779_1592)"/>
<defs>
<linearGradient id="paint0_linear_779_1592" x1="100.039" y1="-6.74074" x2="189.201" y2="96.7273" gradientUnits="userSpaceOnUse">
<stop stop-color="#8D1CFE"/>
<stop offset="1" stop-color="#0038ED"/>
</linearGradient>
</defs>
</svg>
