<svg width="48" height="48" viewBox="0 0 48 48" fill="none" xmlns="http://www.w3.org/2000/svg">
<path opacity="0.4" d="M14.861 38.137C16.521 38.137 17.881 39.497 17.881 41.177C17.881 42.837 16.521 44.197 14.861 44.197C13.181 44.197 11.821 42.837 11.821 41.177C11.821 39.497 13.181 38.137 14.861 38.137ZM37.361 38.137C39.021 38.137 40.381 39.497 40.381 41.177C40.381 42.837 39.021 44.197 37.361 44.197C35.681 44.197 34.321 42.837 34.321 41.177C34.321 39.497 35.681 38.137 37.361 38.137Z" fill="url(#paint0_linear_3_39806)"/>
<path d="M5.55766 4.99952L5.76148 5.01599L10.5315 5.73599C11.2115 5.85799 11.7115 6.41599 11.7715 7.09599L12.1515 11.576C12.2115 12.218 12.7315 12.698 13.3715 12.698H40.3815C41.6015 12.698 42.4015 13.118 43.2015 14.038C44.0015 14.958 44.1415 16.278 43.9615 17.476L42.0615 30.596C41.7015 33.118 39.5415 34.976 37.0015 34.976H15.1815C12.5215 34.976 10.3215 32.936 10.1015 30.298L8.26148 8.49599L5.24148 7.97599C4.44148 7.83599 3.88148 7.05599 4.02148 6.25599C4.16148 5.43599 4.94148 4.89599 5.76148 5.01599L5.55766 4.99952ZM33.8015 20.096H28.2615C27.4215 20.096 26.7615 20.756 26.7615 21.596C26.7615 22.416 27.4215 23.096 28.2615 23.096H33.8015C34.6415 23.096 35.3015 22.416 35.3015 21.596C35.3015 20.756 34.6415 20.096 33.8015 20.096Z" fill="url(#paint1_linear_3_39806)"/>
<defs>
<linearGradient id="paint0_linear_3_39806" x1="24.8619" y1="37.5534" x2="31.1746" y2="49.947" gradientUnits="userSpaceOnUse">
<stop stop-color="#8D1CFE"/>
<stop offset="1" stop-color="#0038ED"/>
</linearGradient>
<linearGradient id="paint1_linear_3_39806" x1="22.2787" y1="2.11269" x2="55.0805" y2="20.3601" gradientUnits="userSpaceOnUse">
<stop stop-color="#8D1CFE"/>
<stop offset="1" stop-color="#0038ED"/>
</linearGradient>
</defs>
</svg>
