<svg width="41" height="40" viewBox="0 0 41 40" fill="none" xmlns="http://www.w3.org/2000/svg">
<g clip-path="url(#clip0_0_36)">
<g clip-path="url(#clip1_0_36)">
<path d="M14.5427 39.7697C17.9458 39.7697 20.7077 37.0078 20.7077 33.6048V27.4398H14.5427C11.1397 27.4398 8.37775 30.2017 8.37775 33.6048C8.37775 37.0078 11.1397 39.7697 14.5427 39.7697Z" fill="#0ACF83"/>
<path d="M8.37775 21.2746C8.37775 17.8715 11.1397 15.1096 14.5427 15.1096H20.7077V27.4395H14.5427C11.1397 27.4395 8.37775 24.6776 8.37775 21.2746Z" fill="#A259FF"/>
<path d="M8.37775 8.9446C8.37775 5.54152 11.1397 2.7796 14.5427 2.7796H20.7077V15.1096H14.5427C11.1397 15.1096 8.37775 12.3477 8.37775 8.9446Z" fill="#F24E1E"/>
<path d="M20.7073 2.77966H26.8723C30.2753 2.77966 33.0373 5.54158 33.0373 8.94466C33.0373 12.3477 30.2753 15.1097 26.8723 15.1097H20.7073V2.77966Z" fill="#FF7262"/>
<path d="M33.0373 21.2746C33.0373 24.6776 30.2753 27.4395 26.8723 27.4395C23.4692 27.4395 20.7073 24.6776 20.7073 21.2746C20.7073 17.8715 23.4692 15.1096 26.8723 15.1096C30.2753 15.1096 33.0373 17.8715 33.0373 21.2746Z" fill="#1ABCFE"/>
</g>
</g>
<defs>
<clipPath id="clip0_0_36">
<rect width="39.6321" height="39.6321" fill="white" transform="translate(0.451477 0.137451)"/>
</clipPath>
<clipPath id="clip1_0_36">
<rect width="24.66" height="36.99" fill="white" transform="translate(8.37775 2.7796)"/>
</clipPath>
</defs>
</svg>
